<svg width="650" height="400" viewBox="0 0 650 400" fill="none" xmlns="http://www.w3.org/2000/svg">
<g clip-path="url(#clip0_176_4855)">
<path d="M650 0H0V400H650V0Z" fill="white"/>
<path d="M55.5 47V326" stroke="#E6E6E6"/>
<path d="M113.5 47V326" stroke="#E6E6E6"/>
<path d="M172.5 47V326" stroke="#E6E6E6"/>
<path d="M230.5 47V326" stroke="#E6E6E6"/>
<path d="M289.5 47V326" stroke="#E6E6E6"/>
<path d="M347.5 47V326" stroke="#E6E6E6"/>
<path d="M405.5 47V326" stroke="#E6E6E6"/>
<path d="M464.5 47V326" stroke="#E6E6E6"/>
<path d="M522.5 47V326" stroke="#E6E6E6"/>
<path d="M581.5 47V326" stroke="#E6E6E6"/>
<path d="M640.5 47V326" stroke="#E6E6E6"/>
<path d="M55.5 47V326" stroke="#CCD6EB"/>
<path d="M119 82V108H55V82H119Z" fill="black"/>
<path d="M569 222V248L55 248V222L569 222Z" fill="black"/>
<path d="M189 124V150H55V124H189Z" fill="#D1B23D"/>
<path d="M329 264V290H55V264H329Z" fill="#D1B23D"/>
<path d="M638.5 10.5H618.5C617.395 10.5 616.5 11.3954 616.5 12.5V30.5C616.5 31.6046 617.395 32.5 618.5 32.5H638.5C639.605 32.5 640.5 31.6046 640.5 30.5V12.5C640.5 11.3954 639.605 10.5 638.5 10.5Z" fill="white"/>
<path d="M622 16.5H636ZM622 21.5H636ZM622 26.5H636Z" fill="#666666"/>
<path d="M622 16.5H636M622 21.5H636M622 26.5H636" stroke="#666666" stroke-width="3" stroke-linecap="round"/>
<path d="M298.773 15H297.187C297.094 14.544 296.93 14.1435 296.695 13.7983C296.465 13.4531 296.184 13.1634 295.851 12.929C295.523 12.6903 295.159 12.5114 294.758 12.392C294.358 12.2727 293.94 12.2131 293.506 12.2131C292.713 12.2131 291.995 12.4134 291.351 12.8139C290.712 13.2145 290.203 13.8047 289.824 14.5845C289.449 15.3643 289.261 16.321 289.261 17.4545C289.261 18.5881 289.449 19.5447 289.824 20.3246C290.203 21.1044 290.712 21.6946 291.351 22.0952C291.995 22.4957 292.713 22.696 293.506 22.696C293.94 22.696 294.358 22.6364 294.758 22.517C295.159 22.3977 295.523 22.2209 295.851 21.9865C296.184 21.7479 296.465 21.456 296.695 21.1108C296.93 20.7614 297.094 20.3608 297.187 19.9091H298.773C298.653 20.5781 298.436 21.1768 298.121 21.7053C297.805 22.2337 297.413 22.6832 296.945 23.054C296.476 23.4205 295.949 23.6996 295.366 23.8913C294.786 24.0831 294.166 24.179 293.506 24.179C292.389 24.179 291.396 23.9062 290.527 23.3608C289.658 22.8153 288.974 22.0398 288.475 21.0341C287.976 20.0284 287.727 18.8352 287.727 17.4545C287.727 16.0739 287.976 14.8807 288.475 13.875C288.974 12.8693 289.658 12.0938 290.527 11.5483C291.396 11.0028 292.389 10.7301 293.506 10.7301C294.166 10.7301 294.786 10.826 295.366 11.0178C295.949 11.2095 296.476 11.4908 296.945 11.8615C297.413 12.228 297.805 12.6754 298.121 13.2038C298.436 13.728 298.653 14.3267 298.773 15ZM305.118 24.2045C304.232 24.2045 303.454 23.9936 302.785 23.5717C302.12 23.1499 301.601 22.5597 301.226 21.8011C300.855 21.0426 300.669 20.1562 300.669 19.142C300.669 18.1193 300.855 17.2266 301.226 16.4638C301.601 15.701 302.12 15.1087 302.785 14.6868C303.454 14.2649 304.232 14.054 305.118 14.054C306.005 14.054 306.78 14.2649 307.445 14.6868C308.114 15.1087 308.634 15.701 309.005 16.4638C309.38 17.2266 309.567 18.1193 309.567 19.142C309.567 20.1562 309.38 21.0426 309.005 21.8011C308.634 22.5597 308.114 23.1499 307.445 23.5717C306.78 23.9936 306.005 24.2045 305.118 24.2045ZM305.118 22.8494C305.792 22.8494 306.346 22.6768 306.78 22.3317C307.215 21.9865 307.537 21.5327 307.745 20.9702C307.954 20.4077 308.059 19.7983 308.059 19.142C308.059 18.4858 307.954 17.8743 307.745 17.3075C307.537 16.7408 307.215 16.2827 306.78 15.9332C306.346 15.5838 305.792 15.4091 305.118 15.4091C304.445 15.4091 303.891 15.5838 303.456 15.9332C303.022 16.2827 302.7 16.7408 302.491 17.3075C302.282 17.8743 302.178 18.4858 302.178 19.142C302.178 19.7983 302.282 20.4077 302.491 20.9702C302.7 21.5327 303.022 21.9865 303.456 22.3317C303.891 22.6768 304.445 22.8494 305.118 22.8494ZM311.87 24V14.1818H313.327V15.7159H313.455C313.66 15.1918 313.99 14.7848 314.446 14.495C314.902 14.201 315.449 14.054 316.089 14.054C316.736 14.054 317.275 14.201 317.706 14.495C318.141 14.7848 318.479 15.1918 318.722 15.7159H318.824C319.076 15.2088 319.453 14.8061 319.956 14.5078C320.459 14.2053 321.062 14.054 321.765 14.054C322.643 14.054 323.361 14.3288 323.919 14.8786C324.477 15.424 324.756 16.2741 324.756 17.429V24H323.248V17.429C323.248 16.7045 323.05 16.1868 322.653 15.8757C322.257 15.5646 321.79 15.4091 321.253 15.4091C320.563 15.4091 320.028 15.6179 319.649 16.0355C319.27 16.4489 319.08 16.973 319.08 17.608V24H317.546V17.2756C317.546 16.7173 317.365 16.2678 317.003 15.9268C316.641 15.5817 316.174 15.4091 315.603 15.4091C315.211 15.4091 314.844 15.5135 314.503 15.7223C314.167 15.9311 313.894 16.2209 313.685 16.5916C313.481 16.9581 313.378 17.3821 313.378 17.8636V24H311.87ZM327.514 27.6818V14.1818H328.972V15.7415H329.151C329.262 15.571 329.415 15.3537 329.611 15.0895C329.811 14.821 330.097 14.5824 330.468 14.3736C330.843 14.1605 331.35 14.054 331.989 14.054C332.816 14.054 333.544 14.2607 334.175 14.674C334.806 15.0874 335.298 15.6733 335.652 16.4318C336.005 17.1903 336.182 18.0852 336.182 19.1165C336.182 20.1562 336.005 21.0575 335.652 21.8203C335.298 22.5788 334.808 23.1669 334.181 23.5845C333.555 23.9979 332.833 24.2045 332.014 24.2045C331.384 24.2045 330.879 24.1001 330.5 23.8913C330.12 23.6783 329.828 23.4375 329.624 23.169C329.419 22.8963 329.262 22.6705 329.151 22.4915H329.023V27.6818H327.514ZM328.997 19.0909C328.997 19.8324 329.106 20.4865 329.323 21.0533C329.541 21.6158 329.858 22.0568 330.276 22.3764C330.693 22.6918 331.205 22.8494 331.81 22.8494C332.441 22.8494 332.967 22.6832 333.389 22.3509C333.815 22.0142 334.134 21.5625 334.348 20.9957C334.565 20.4247 334.674 19.7898 334.674 19.0909C334.674 18.4006 334.567 17.7784 334.354 17.2244C334.145 16.6662 333.828 16.2251 333.402 15.9013C332.98 15.5732 332.449 15.4091 331.81 15.4091C331.196 15.4091 330.681 15.5646 330.263 15.8757C329.845 16.1825 329.53 16.6129 329.317 17.1669C329.104 17.7166 328.997 18.358 328.997 19.0909ZM338.483 24V14.1818H339.941V15.6648H340.043C340.222 15.179 340.546 14.7848 341.014 14.4822C341.483 14.1797 342.012 14.0284 342.6 14.0284C342.71 14.0284 342.849 14.0305 343.015 14.0348C343.181 14.0391 343.307 14.0455 343.392 14.054V15.5881C343.341 15.5753 343.224 15.5561 343.041 15.5305C342.862 15.5007 342.672 15.4858 342.472 15.4858C341.995 15.4858 341.568 15.5859 341.193 15.7862C340.823 15.9822 340.529 16.255 340.311 16.6044C340.098 16.9496 339.992 17.3437 339.992 17.7869V24H338.483ZM348.07 24.2301C347.448 24.2301 346.883 24.1129 346.376 23.8786C345.869 23.6399 345.466 23.2969 345.168 22.8494C344.869 22.3977 344.72 21.8523 344.72 21.2131C344.72 20.6506 344.831 20.1946 345.053 19.8452C345.274 19.4915 345.57 19.2145 345.941 19.0142C346.312 18.8139 346.721 18.6648 347.168 18.5668C347.62 18.4645 348.074 18.3835 348.53 18.3239C349.127 18.2472 349.61 18.1896 349.981 18.1513C350.356 18.1087 350.629 18.0384 350.799 17.9403C350.974 17.8423 351.061 17.6719 351.061 17.429V17.3778C351.061 16.7472 350.889 16.2571 350.543 15.9077C350.203 15.5582 349.685 15.3835 348.99 15.3835C348.27 15.3835 347.705 15.5412 347.296 15.8565C346.887 16.1719 346.6 16.5085 346.433 16.8665L345.002 16.3551C345.257 15.7585 345.598 15.294 346.024 14.9616C346.455 14.625 346.923 14.3906 347.43 14.2585C347.942 14.1222 348.445 14.054 348.939 14.054C349.254 14.054 349.617 14.0923 350.026 14.169C350.439 14.2415 350.837 14.3928 351.221 14.6229C351.609 14.853 351.93 15.2003 352.186 15.6648C352.442 16.1293 352.57 16.7514 352.57 17.5312V24H351.061V22.6705H350.984C350.882 22.8835 350.712 23.1115 350.473 23.3544C350.234 23.5973 349.917 23.804 349.521 23.9744C349.124 24.1449 348.641 24.2301 348.07 24.2301ZM348.3 22.875C348.896 22.875 349.399 22.7578 349.808 22.5234C350.222 22.2891 350.533 21.9865 350.742 21.6158C350.955 21.245 351.061 20.8551 351.061 20.446V19.0653C350.997 19.142 350.857 19.2124 350.639 19.2763C350.426 19.3359 350.179 19.3892 349.898 19.4361C349.621 19.4787 349.35 19.517 349.086 19.5511C348.826 19.581 348.615 19.6065 348.453 19.6278C348.061 19.679 347.695 19.7621 347.354 19.8771C347.017 19.9879 346.744 20.1562 346.536 20.3821C346.331 20.6037 346.229 20.9062 346.229 21.2898C346.229 21.8139 346.423 22.2102 346.81 22.4787C347.203 22.7429 347.699 22.875 348.3 22.875ZM362.278 16.3807L360.922 16.7642C360.837 16.5384 360.712 16.3189 360.545 16.1058C360.383 15.8885 360.162 15.7095 359.881 15.5689C359.599 15.4283 359.239 15.358 358.8 15.358C358.199 15.358 357.699 15.4964 357.298 15.7734C356.902 16.0462 356.704 16.3935 356.704 16.8153C356.704 17.1903 356.84 17.4865 357.113 17.7038C357.386 17.9212 357.812 18.1023 358.391 18.2472L359.849 18.6051C360.726 18.8182 361.381 19.1442 361.811 19.5831C362.241 20.0178 362.457 20.5781 362.457 21.2642C362.457 21.8267 362.295 22.3295 361.971 22.7727C361.651 23.2159 361.204 23.5653 360.628 23.821C360.053 24.0767 359.384 24.2045 358.621 24.2045C357.62 24.2045 356.791 23.9872 356.135 23.5526C355.479 23.1179 355.063 22.483 354.888 21.6477L356.32 21.2898C356.457 21.8182 356.714 22.2145 357.094 22.4787C357.477 22.7429 357.978 22.875 358.596 22.875C359.299 22.875 359.857 22.7259 360.271 22.4276C360.688 22.125 360.897 21.7628 360.897 21.3409C360.897 21 360.778 20.7145 360.539 20.4844C360.3 20.25 359.934 20.0753 359.44 19.9602L357.803 19.5767C356.904 19.3636 356.244 19.0334 355.822 18.5859C355.404 18.1342 355.195 17.5696 355.195 16.892C355.195 16.3381 355.351 15.848 355.662 15.4219C355.977 14.9957 356.405 14.6612 356.947 14.4183C357.492 14.1754 358.11 14.054 358.8 14.054C359.772 14.054 360.535 14.267 361.089 14.6932C361.647 15.1193 362.043 15.6818 362.278 16.3807Z" fill="#333333"/>
<path d="M128.129 92V100H126.438V93.6055H126.391L124.559 94.7539V93.2539L126.539 92H128.129ZM133.511 92V100H131.819V93.6055H131.772L129.94 94.7539V93.2539L131.921 92H133.511Z" fill="black"/>
<path d="M577.633 240.109C577.031 240.109 576.496 240.012 576.027 239.816C575.561 239.618 575.195 239.349 574.93 239.008C574.664 238.667 574.531 238.28 574.531 237.848C574.531 237.514 574.607 237.208 574.758 236.93C574.911 236.648 575.12 236.415 575.383 236.23C575.646 236.043 575.94 235.923 576.266 235.871V235.816C575.839 235.73 575.492 235.523 575.227 235.195C574.961 234.865 574.828 234.48 574.828 234.043C574.828 233.629 574.949 233.26 575.191 232.937C575.434 232.612 575.766 232.357 576.188 232.172C576.612 231.984 577.094 231.891 577.633 231.891C578.172 231.891 578.652 231.984 579.074 232.172C579.499 232.359 579.832 232.616 580.074 232.941C580.316 233.264 580.439 233.632 580.441 234.043C580.439 234.483 580.303 234.867 580.035 235.195C579.767 235.523 579.423 235.73 579.004 235.816V235.871C579.324 235.923 579.615 236.043 579.875 236.23C580.138 236.415 580.346 236.648 580.5 236.93C580.656 237.208 580.736 237.514 580.738 237.848C580.736 238.28 580.602 238.667 580.336 239.008C580.07 239.349 579.703 239.618 579.234 239.816C578.768 240.012 578.234 240.109 577.633 240.109ZM577.633 238.867C577.901 238.867 578.135 238.819 578.336 238.723C578.536 238.624 578.693 238.488 578.805 238.316C578.919 238.142 578.977 237.941 578.977 237.715C578.977 237.483 578.918 237.279 578.801 237.102C578.684 236.922 578.525 236.781 578.324 236.68C578.124 236.576 577.893 236.523 577.633 236.523C577.375 236.523 577.145 236.576 576.941 236.68C576.738 236.781 576.578 236.922 576.461 237.102C576.346 237.279 576.289 237.483 576.289 237.715C576.289 237.941 576.345 238.142 576.457 238.316C576.569 238.488 576.727 238.624 576.93 238.723C577.133 238.819 577.367 238.867 577.633 238.867ZM577.633 235.293C577.857 235.293 578.056 235.247 578.23 235.156C578.405 235.065 578.542 234.939 578.641 234.777C578.74 234.616 578.789 234.43 578.789 234.219C578.789 234.01 578.74 233.828 578.641 233.672C578.542 233.513 578.406 233.389 578.234 233.301C578.063 233.21 577.862 233.164 577.633 233.164C577.406 233.164 577.206 233.21 577.031 233.301C576.857 233.389 576.72 233.513 576.621 233.672C576.525 233.828 576.477 234.01 576.477 234.219C576.477 234.43 576.526 234.616 576.625 234.777C576.724 234.939 576.861 235.065 577.035 235.156C577.21 235.247 577.409 235.293 577.633 235.293ZM584.905 240.109C584.304 240.109 583.769 240.012 583.3 239.816C582.834 239.618 582.468 239.349 582.202 239.008C581.937 238.667 581.804 238.28 581.804 237.848C581.804 237.514 581.879 237.208 582.03 236.93C582.184 236.648 582.392 236.415 582.655 236.23C582.918 236.043 583.213 235.923 583.538 235.871V235.816C583.111 235.73 582.765 235.523 582.499 235.195C582.233 234.865 582.101 234.48 582.101 234.043C582.101 233.629 582.222 233.26 582.464 232.937C582.706 232.612 583.038 232.357 583.46 232.172C583.884 231.984 584.366 231.891 584.905 231.891C585.444 231.891 585.925 231.984 586.347 232.172C586.771 232.359 587.104 232.616 587.347 232.941C587.589 233.264 587.711 233.632 587.714 234.043C587.711 234.483 587.576 234.867 587.308 235.195C587.039 235.523 586.696 235.73 586.276 235.816V235.871C586.597 235.923 586.887 236.043 587.147 236.23C587.41 236.415 587.619 236.648 587.772 236.93C587.929 237.208 588.008 237.514 588.011 237.848C588.008 238.28 587.874 238.667 587.608 239.008C587.343 239.349 586.976 239.618 586.507 239.816C586.041 240.012 585.507 240.109 584.905 240.109ZM584.905 238.867C585.174 238.867 585.408 238.819 585.608 238.723C585.809 238.624 585.965 238.488 586.077 238.316C586.192 238.142 586.249 237.941 586.249 237.715C586.249 237.483 586.19 237.279 586.073 237.102C585.956 236.922 585.797 236.781 585.597 236.68C585.396 236.576 585.166 236.523 584.905 236.523C584.647 236.523 584.417 236.576 584.214 236.68C584.011 236.781 583.851 236.922 583.733 237.102C583.619 237.279 583.562 237.483 583.562 237.715C583.562 237.941 583.618 238.142 583.729 238.316C583.841 238.488 583.999 238.624 584.202 238.723C584.405 238.819 584.64 238.867 584.905 238.867ZM584.905 235.293C585.129 235.293 585.328 235.247 585.503 235.156C585.677 235.065 585.814 234.939 585.913 234.777C586.012 234.616 586.062 234.43 586.062 234.219C586.062 234.01 586.012 233.828 585.913 233.672C585.814 233.513 585.679 233.389 585.507 233.301C585.335 233.21 585.134 233.164 584.905 233.164C584.679 233.164 584.478 233.21 584.304 233.301C584.129 233.389 583.993 233.513 583.894 233.672C583.797 233.828 583.749 234.01 583.749 234.219C583.749 234.43 583.799 234.616 583.897 234.777C583.996 234.939 584.133 235.065 584.308 235.156C584.482 235.247 584.681 235.293 584.905 235.293Z" fill="black"/>
<path d="M194.648 142V140.781L197.496 138.145C197.738 137.91 197.941 137.699 198.105 137.512C198.272 137.324 198.398 137.141 198.484 136.961C198.57 136.779 198.613 136.582 198.613 136.371C198.613 136.137 198.56 135.935 198.453 135.766C198.346 135.594 198.201 135.462 198.016 135.371C197.831 135.277 197.621 135.23 197.387 135.23C197.142 135.23 196.928 135.28 196.746 135.379C196.564 135.478 196.423 135.62 196.324 135.805C196.225 135.99 196.176 136.21 196.176 136.465H194.57C194.57 135.941 194.689 135.487 194.926 135.102C195.163 134.716 195.495 134.418 195.922 134.207C196.349 133.996 196.841 133.891 197.398 133.891C197.971 133.891 198.47 133.992 198.895 134.195C199.322 134.396 199.654 134.674 199.891 135.031C200.128 135.388 200.246 135.797 200.246 136.258C200.246 136.56 200.186 136.858 200.066 137.152C199.949 137.447 199.74 137.773 199.438 138.133C199.135 138.49 198.71 138.918 198.16 139.418L196.992 140.562V140.617H200.352V142H194.648ZM204.534 142.109C203.951 142.109 203.431 142.009 202.976 141.809C202.522 141.605 202.164 141.327 201.901 140.973C201.641 140.616 201.507 140.204 201.499 139.738H203.202C203.213 139.934 203.276 140.105 203.394 140.254C203.513 140.4 203.672 140.513 203.87 140.594C204.068 140.674 204.291 140.715 204.538 140.715C204.796 140.715 205.024 140.669 205.222 140.578C205.42 140.487 205.575 140.361 205.687 140.199C205.799 140.038 205.854 139.852 205.854 139.641C205.854 139.427 205.795 139.238 205.675 139.074C205.558 138.908 205.388 138.777 205.167 138.684C204.948 138.59 204.688 138.543 204.386 138.543H203.64V137.301H204.386C204.641 137.301 204.866 137.257 205.062 137.168C205.259 137.079 205.413 136.957 205.522 136.801C205.632 136.642 205.687 136.457 205.687 136.246C205.687 136.046 205.638 135.87 205.542 135.719C205.448 135.565 205.315 135.445 205.144 135.359C204.974 135.273 204.776 135.23 204.55 135.23C204.321 135.23 204.111 135.272 203.921 135.355C203.731 135.436 203.578 135.552 203.464 135.703C203.349 135.854 203.288 136.031 203.28 136.234H201.659C201.667 135.773 201.799 135.367 202.054 135.016C202.309 134.664 202.653 134.389 203.085 134.191C203.52 133.991 204.011 133.891 204.558 133.891C205.11 133.891 205.593 133.991 206.007 134.191C206.421 134.392 206.743 134.663 206.972 135.004C207.203 135.342 207.318 135.723 207.315 136.145C207.318 136.592 207.179 136.966 206.897 137.266C206.619 137.565 206.256 137.755 205.808 137.836V137.898C206.396 137.974 206.844 138.178 207.151 138.512C207.461 138.842 207.615 139.257 207.612 139.754C207.615 140.21 207.483 140.615 207.218 140.969C206.955 141.323 206.591 141.602 206.128 141.805C205.664 142.008 205.133 142.109 204.534 142.109Z" fill="black"/>
<path d="M334.527 280.594V279.262L337.867 274H339.016V275.844H338.336L336.23 279.176V279.238H340.977V280.594H334.527ZM338.367 282V280.187L338.398 279.598V274H339.984V282H338.367ZM342.42 282L345.736 275.437V275.383H341.873V274H347.486V275.402L344.166 282H342.42Z" fill="black"/>
<path d="M284.459 371.328H282.592C282.558 371.087 282.489 370.872 282.384 370.685C282.278 370.494 282.143 370.332 281.979 370.199C281.814 370.065 281.624 369.963 281.408 369.892C281.195 369.821 280.963 369.786 280.713 369.786C280.261 369.786 279.868 369.898 279.533 370.122C279.197 370.344 278.938 370.668 278.753 371.094C278.568 371.517 278.476 372.031 278.476 372.636C278.476 373.259 278.568 373.781 278.753 374.205C278.94 374.628 279.202 374.947 279.537 375.163C279.872 375.379 280.26 375.487 280.7 375.487C280.947 375.487 281.176 375.455 281.386 375.389C281.599 375.324 281.788 375.229 281.953 375.104C282.118 374.976 282.254 374.821 282.362 374.639C282.473 374.457 282.55 374.25 282.592 374.017L284.459 374.026C284.411 374.426 284.29 374.812 284.097 375.185C283.906 375.554 283.649 375.885 283.325 376.178C283.004 376.467 282.621 376.697 282.175 376.868C281.732 377.036 281.23 377.119 280.67 377.119C279.892 377.119 279.196 376.943 278.582 376.591C277.972 376.239 277.489 375.729 277.134 375.061C276.781 374.393 276.605 373.585 276.605 372.636C276.605 371.685 276.784 370.875 277.142 370.207C277.5 369.54 277.986 369.031 278.599 368.682C279.213 368.33 279.903 368.153 280.67 368.153C281.176 368.153 281.645 368.224 282.077 368.366C282.511 368.509 282.896 368.716 283.232 368.989C283.567 369.259 283.839 369.589 284.05 369.982C284.263 370.374 284.399 370.822 284.459 371.328ZM285.748 377V370.455H287.508V371.597H287.576C287.695 371.19 287.896 370.884 288.177 370.676C288.458 370.466 288.782 370.361 289.148 370.361C289.239 370.361 289.337 370.366 289.442 370.378C289.548 370.389 289.64 370.405 289.719 370.425V372.036C289.634 372.01 289.516 371.987 289.366 371.967C289.215 371.947 289.077 371.938 288.952 371.938C288.685 371.938 288.447 371.996 288.237 372.112C288.029 372.226 287.864 372.385 287.742 372.589C287.623 372.794 287.563 373.03 287.563 373.297V377H285.748ZM293.336 377.128C292.663 377.128 292.083 376.991 291.598 376.719C291.115 376.443 290.743 376.054 290.481 375.551C290.22 375.045 290.089 374.447 290.089 373.757C290.089 373.084 290.22 372.493 290.481 371.984C290.743 371.476 291.11 371.08 291.585 370.795C292.062 370.511 292.622 370.369 293.264 370.369C293.696 370.369 294.098 370.439 294.47 370.578C294.845 370.714 295.172 370.92 295.45 371.196C295.731 371.472 295.95 371.818 296.106 372.236C296.262 372.651 296.341 373.136 296.341 373.693V374.192H290.814V373.067H294.632C294.632 372.805 294.575 372.574 294.461 372.372C294.348 372.17 294.19 372.013 293.988 371.899C293.789 371.783 293.558 371.724 293.294 371.724C293.018 371.724 292.774 371.788 292.561 371.916C292.35 372.041 292.186 372.21 292.066 372.423C291.947 372.634 291.886 372.868 291.883 373.126V374.196C291.883 374.52 291.943 374.8 292.062 375.036C292.184 375.271 292.356 375.453 292.578 375.581C292.799 375.709 293.062 375.773 293.366 375.773C293.568 375.773 293.752 375.744 293.92 375.688C294.088 375.631 294.231 375.545 294.35 375.432C294.47 375.318 294.561 375.179 294.623 375.014L296.302 375.125C296.217 375.528 296.042 375.881 295.778 376.182C295.517 376.48 295.179 376.713 294.764 376.881C294.352 377.045 293.876 377.128 293.336 377.128ZM299.937 377.107C299.44 377.107 298.99 376.979 298.586 376.723C298.186 376.464 297.868 376.085 297.632 375.585C297.399 375.082 297.282 374.466 297.282 373.736C297.282 372.986 297.403 372.362 297.645 371.865C297.886 371.365 298.207 370.991 298.608 370.744C299.011 370.494 299.453 370.369 299.933 370.369C300.299 370.369 300.605 370.432 300.849 370.557C301.096 370.679 301.295 370.832 301.446 371.017C301.599 371.199 301.716 371.378 301.795 371.554H301.85V368.273H303.662V377H301.872V375.952H301.795C301.71 376.134 301.589 376.314 301.433 376.493C301.279 376.669 301.079 376.815 300.832 376.932C300.588 377.048 300.289 377.107 299.937 377.107ZM300.512 375.662C300.805 375.662 301.052 375.582 301.254 375.423C301.458 375.261 301.615 375.036 301.723 374.746C301.833 374.456 301.889 374.116 301.889 373.727C301.889 373.338 301.835 373 301.727 372.713C301.619 372.426 301.463 372.205 301.258 372.048C301.054 371.892 300.805 371.814 300.512 371.814C300.214 371.814 299.963 371.895 299.758 372.057C299.554 372.219 299.399 372.443 299.294 372.73C299.189 373.017 299.136 373.349 299.136 373.727C299.136 374.108 299.189 374.445 299.294 374.737C299.402 375.027 299.556 375.254 299.758 375.419C299.963 375.581 300.214 375.662 300.512 375.662ZM305.154 377V370.455H306.969V377H305.154ZM306.066 369.611C305.796 369.611 305.565 369.521 305.371 369.342C305.181 369.161 305.086 368.943 305.086 368.69C305.086 368.44 305.181 368.226 305.371 368.047C305.565 367.865 305.796 367.774 306.066 367.774C306.336 367.774 306.566 367.865 306.756 368.047C306.95 368.226 307.046 368.44 307.046 368.69C307.046 368.943 306.95 369.161 306.756 369.342C306.566 369.521 306.336 369.611 306.066 369.611ZM311.905 370.455V371.818H307.963V370.455H311.905ZM308.858 368.886H310.674V374.989C310.674 375.156 310.699 375.287 310.75 375.381C310.801 375.472 310.873 375.536 310.963 375.572C311.057 375.609 311.165 375.628 311.287 375.628C311.373 375.628 311.458 375.621 311.543 375.607C311.628 375.589 311.694 375.577 311.739 375.568L312.025 376.919C311.934 376.947 311.806 376.98 311.641 377.017C311.476 377.057 311.276 377.081 311.04 377.089C310.603 377.107 310.219 377.048 309.89 376.915C309.563 376.781 309.309 376.574 309.127 376.293C308.945 376.011 308.855 375.656 308.858 375.227V368.886ZM315.975 377.128C315.313 377.128 314.74 376.987 314.257 376.706C313.777 376.422 313.407 376.027 313.145 375.521C312.884 375.013 312.753 374.423 312.753 373.753C312.753 373.077 312.884 372.486 313.145 371.98C313.407 371.472 313.777 371.077 314.257 370.795C314.74 370.511 315.313 370.369 315.975 370.369C316.637 370.369 317.208 370.511 317.688 370.795C318.171 371.077 318.543 371.472 318.804 371.98C319.066 372.486 319.196 373.077 319.196 373.753C319.196 374.423 319.066 375.013 318.804 375.521C318.543 376.027 318.171 376.422 317.688 376.706C317.208 376.987 316.637 377.128 315.975 377.128ZM315.983 375.722C316.284 375.722 316.536 375.636 316.738 375.466C316.939 375.293 317.091 375.057 317.194 374.759C317.299 374.46 317.351 374.121 317.351 373.74C317.351 373.359 317.299 373.02 317.194 372.722C317.091 372.423 316.939 372.187 316.738 372.014C316.536 371.841 316.284 371.754 315.983 371.754C315.679 371.754 315.424 371.841 315.216 372.014C315.012 372.187 314.857 372.423 314.752 372.722C314.65 373.02 314.598 373.359 314.598 373.74C314.598 374.121 314.65 374.46 314.752 374.759C314.857 375.057 315.012 375.293 315.216 375.466C315.424 375.636 315.679 375.722 315.983 375.722Z" fill="#333333"/>
<path d="M269 372C269 368.686 266.314 366 263 366C259.686 366 257 368.686 257 372C257 375.314 259.686 378 263 378C266.314 378 269 375.314 269 372Z" fill="black"/>
<path d="M361.452 377H358.358V368.273H361.477C362.355 368.273 363.111 368.447 363.744 368.797C364.378 369.143 364.865 369.642 365.206 370.293C365.55 370.943 365.722 371.722 365.722 372.628C365.722 373.537 365.55 374.318 365.206 374.972C364.865 375.625 364.375 376.126 363.736 376.476C363.1 376.825 362.338 377 361.452 377ZM360.203 375.419H361.375C361.921 375.419 362.379 375.322 362.752 375.129C363.127 374.933 363.408 374.631 363.595 374.222C363.786 373.81 363.881 373.278 363.881 372.628C363.881 371.983 363.786 371.456 363.595 371.047C363.408 370.638 363.128 370.337 362.756 370.143C362.384 369.95 361.925 369.854 361.379 369.854H360.203V375.419ZM370.037 377.128C369.364 377.128 368.785 376.991 368.299 376.719C367.816 376.443 367.444 376.054 367.182 375.551C366.921 375.045 366.79 374.447 366.79 373.757C366.79 373.084 366.921 372.493 367.182 371.984C367.444 371.476 367.812 371.08 368.286 370.795C368.763 370.511 369.323 370.369 369.965 370.369C370.397 370.369 370.799 370.439 371.171 370.578C371.546 370.714 371.873 370.92 372.151 371.196C372.432 371.472 372.651 371.818 372.807 372.236C372.964 372.651 373.042 373.136 373.042 373.693V374.192H367.515V373.067H371.333C371.333 372.805 371.276 372.574 371.162 372.372C371.049 372.17 370.891 372.013 370.689 371.899C370.491 371.783 370.259 371.724 369.995 371.724C369.719 371.724 369.475 371.788 369.262 371.916C369.052 372.041 368.887 372.21 368.768 372.423C368.648 372.634 368.587 372.868 368.584 373.126V374.196C368.584 374.52 368.644 374.8 368.763 375.036C368.885 375.271 369.057 375.453 369.279 375.581C369.501 375.709 369.763 375.773 370.067 375.773C370.269 375.773 370.454 375.744 370.621 375.688C370.789 375.631 370.932 375.545 371.052 375.432C371.171 375.318 371.262 375.179 371.324 375.014L373.003 375.125C372.918 375.528 372.743 375.881 372.479 376.182C372.218 376.48 371.88 376.713 371.465 376.881C371.053 377.045 370.577 377.128 370.037 377.128ZM374.26 377V368.273H376.076V371.554H376.131C376.211 371.378 376.326 371.199 376.476 371.017C376.63 370.832 376.829 370.679 377.073 370.557C377.32 370.432 377.627 370.369 377.993 370.369C378.471 370.369 378.911 370.494 379.314 370.744C379.718 370.991 380.04 371.365 380.282 371.865C380.523 372.362 380.644 372.986 380.644 373.736C380.644 374.466 380.526 375.082 380.29 375.585C380.057 376.085 379.739 376.464 379.336 376.723C378.935 376.979 378.486 377.107 377.989 377.107C377.637 377.107 377.337 377.048 377.09 376.932C376.846 376.815 376.645 376.669 376.489 376.493C376.333 376.314 376.214 376.134 376.131 375.952H376.05V377H374.26ZM376.037 373.727C376.037 374.116 376.091 374.456 376.199 374.746C376.307 375.036 376.464 375.261 376.668 375.423C376.873 375.582 377.121 375.662 377.414 375.662C377.709 375.662 377.959 375.581 378.164 375.419C378.368 375.254 378.523 375.027 378.628 374.737C378.736 374.445 378.79 374.108 378.79 373.727C378.79 373.349 378.738 373.017 378.633 372.73C378.528 372.443 378.373 372.219 378.168 372.057C377.964 371.895 377.712 371.814 377.414 371.814C377.118 371.814 376.868 371.892 376.664 372.048C376.462 372.205 376.307 372.426 376.199 372.713C376.091 373 376.037 373.338 376.037 373.727ZM381.855 377V370.455H383.671V377H381.855ZM382.767 369.611C382.497 369.611 382.266 369.521 382.073 369.342C381.882 369.161 381.787 368.943 381.787 368.69C381.787 368.44 381.882 368.226 382.073 368.047C382.266 367.865 382.497 367.774 382.767 367.774C383.037 367.774 383.267 367.865 383.458 368.047C383.651 368.226 383.747 368.44 383.747 368.69C383.747 368.943 383.651 369.161 383.458 369.342C383.267 369.521 383.037 369.611 382.767 369.611ZM388.606 370.455V371.818H384.665V370.455H388.606ZM385.559 368.886H387.375V374.989C387.375 375.156 387.4 375.287 387.452 375.381C387.503 375.472 387.574 375.536 387.665 375.572C387.758 375.609 387.866 375.628 387.988 375.628C388.074 375.628 388.159 375.621 388.244 375.607C388.329 375.589 388.395 375.577 388.44 375.568L388.726 376.919C388.635 376.947 388.507 376.98 388.342 377.017C388.177 377.057 387.977 377.081 387.741 377.089C387.304 377.107 386.92 377.048 386.591 376.915C386.264 376.781 386.01 376.574 385.828 376.293C385.646 376.011 385.557 375.656 385.559 375.227V368.886ZM392.676 377.128C392.014 377.128 391.442 376.987 390.959 376.706C390.479 376.422 390.108 376.027 389.846 375.521C389.585 375.013 389.454 374.423 389.454 373.753C389.454 373.077 389.585 372.486 389.846 371.98C390.108 371.472 390.479 371.077 390.959 370.795C391.442 370.511 392.014 370.369 392.676 370.369C393.338 370.369 393.909 370.511 394.389 370.795C394.872 371.077 395.244 371.472 395.506 371.98C395.767 372.486 395.898 373.077 395.898 373.753C395.898 374.423 395.767 375.013 395.506 375.521C395.244 376.027 394.872 376.422 394.389 376.706C393.909 376.987 393.338 377.128 392.676 377.128ZM392.684 375.722C392.986 375.722 393.237 375.636 393.439 375.466C393.64 375.293 393.792 375.057 393.895 374.759C394 374.46 394.052 374.121 394.052 373.74C394.052 373.359 394 373.02 393.895 372.722C393.792 372.423 393.64 372.187 393.439 372.014C393.237 371.841 392.986 371.754 392.684 371.754C392.381 371.754 392.125 371.841 391.917 372.014C391.713 372.187 391.558 372.423 391.453 372.722C391.351 373.02 391.3 373.359 391.3 373.74C391.3 374.121 391.351 374.46 391.453 374.759C391.558 375.057 391.713 375.293 391.917 375.466C392.125 375.636 392.381 375.722 392.684 375.722Z" fill="#333333"/>
<path d="M350.6 372C350.6 368.686 347.913 366 344.6 366C341.286 366 338.6 368.686 338.6 372C338.6 375.314 341.286 378 344.6 378C347.913 378 350.6 375.314 350.6 372Z" fill="#D1B23D"/>
<path d="M16.8105 113H17.9668L20.6855 119.641H20.7793L23.498 113H24.6543V121H23.748V114.922H23.6699L21.1699 121H20.2949L17.7949 114.922H17.7168V121H16.8105V113ZM28.2373 121.141C27.8571 121.141 27.512 121.069 27.2021 120.926C26.8923 120.78 26.6462 120.57 26.4639 120.297C26.2816 120.021 26.1904 119.687 26.1904 119.297C26.1904 118.953 26.2581 118.674 26.3936 118.461C26.529 118.245 26.71 118.076 26.9365 117.953C27.1631 117.831 27.4131 117.74 27.6865 117.68C27.9626 117.617 28.2399 117.568 28.5186 117.531C28.8831 117.484 29.1787 117.449 29.4053 117.426C29.6344 117.4 29.8011 117.357 29.9053 117.297C30.012 117.237 30.0654 117.133 30.0654 116.984V116.953C30.0654 116.568 29.96 116.268 29.749 116.055C29.5407 115.841 29.2243 115.734 28.7998 115.734C28.3597 115.734 28.0146 115.831 27.7646 116.023C27.5146 116.216 27.3389 116.422 27.2373 116.641L26.3623 116.328C26.5186 115.964 26.7269 115.68 26.9873 115.477C27.2503 115.271 27.5368 115.128 27.8467 115.047C28.1592 114.964 28.4665 114.922 28.7686 114.922C28.9613 114.922 29.1826 114.945 29.4326 114.992C29.6852 115.036 29.9287 115.129 30.1631 115.27C30.4001 115.41 30.5967 115.622 30.7529 115.906C30.9092 116.19 30.9873 116.57 30.9873 117.047V121H30.0654V120.187H30.0186C29.9561 120.318 29.8519 120.457 29.7061 120.605C29.5602 120.754 29.3662 120.88 29.124 120.984C28.8818 121.089 28.5863 121.141 28.2373 121.141ZM28.3779 120.312C28.7425 120.312 29.0498 120.241 29.2998 120.098C29.5524 119.954 29.7425 119.77 29.8701 119.543C30.0003 119.316 30.0654 119.078 30.0654 118.828V117.984C30.0264 118.031 29.9404 118.074 29.8076 118.113C29.6774 118.15 29.5264 118.182 29.3545 118.211C29.1852 118.237 29.0199 118.26 28.8584 118.281C28.6995 118.299 28.5706 118.315 28.4717 118.328C28.2321 118.359 28.0081 118.41 27.7998 118.48C27.5941 118.548 27.4274 118.651 27.2998 118.789C27.1748 118.924 27.1123 119.109 27.1123 119.344C27.1123 119.664 27.2308 119.906 27.4678 120.07C27.7074 120.232 28.0107 120.312 28.3779 120.312ZM32.6699 121V115H33.5918V121H32.6699ZM33.1387 114C32.959 114 32.804 113.939 32.6738 113.816C32.5462 113.694 32.4824 113.547 32.4824 113.375C32.4824 113.203 32.5462 113.056 32.6738 112.934C32.804 112.811 32.959 112.75 33.1387 112.75C33.3184 112.75 33.472 112.811 33.5996 112.934C33.7298 113.056 33.7949 113.203 33.7949 113.375C33.7949 113.547 33.7298 113.694 33.5996 113.816C33.472 113.939 33.3184 114 33.1387 114ZM37.7178 121.125C37.1761 121.125 36.7008 120.996 36.292 120.738C35.8857 120.48 35.568 120.12 35.3389 119.656C35.1123 119.193 34.999 118.651 34.999 118.031C34.999 117.406 35.1123 116.861 35.3389 116.395C35.568 115.928 35.8857 115.566 36.292 115.309C36.7008 115.051 37.1761 114.922 37.7178 114.922C38.2594 114.922 38.7334 115.051 39.1396 115.309C39.5485 115.566 39.8662 115.928 40.0928 116.395C40.3219 116.861 40.4365 117.406 40.4365 118.031C40.4365 118.651 40.3219 119.193 40.0928 119.656C39.8662 120.12 39.5485 120.48 39.1396 120.738C38.7334 120.996 38.2594 121.125 37.7178 121.125ZM37.7178 120.297C38.1292 120.297 38.4678 120.191 38.7334 119.98C38.999 119.77 39.1956 119.492 39.3232 119.148C39.4508 118.805 39.5146 118.432 39.5146 118.031C39.5146 117.63 39.4508 117.257 39.3232 116.91C39.1956 116.564 38.999 116.284 38.7334 116.07C38.4678 115.857 38.1292 115.75 37.7178 115.75C37.3063 115.75 36.9678 115.857 36.7021 116.07C36.4365 116.284 36.2399 116.564 36.1123 116.91C35.9847 117.257 35.9209 117.63 35.9209 118.031C35.9209 118.432 35.9847 118.805 36.1123 119.148C36.2399 119.492 36.4365 119.77 36.7021 119.98C36.9678 120.191 37.3063 120.297 37.7178 120.297Z" fill="#666666"/>
<path d="M13.1699 253H14.1387V258.719C14.1387 259.229 14.0449 259.663 13.8574 260.02C13.6699 260.376 13.4056 260.647 13.0645 260.832C12.7233 261.017 12.321 261.109 11.8574 261.109C11.4199 261.109 11.0306 261.03 10.6895 260.871C10.3483 260.71 10.0801 260.48 9.88477 260.184C9.68945 259.887 9.5918 259.534 9.5918 259.125H10.5449C10.5449 259.352 10.6009 259.549 10.7129 259.719C10.8275 259.885 10.9837 260.016 11.1816 260.109C11.3796 260.203 11.6048 260.25 11.8574 260.25C12.1361 260.25 12.373 260.191 12.5684 260.074C12.7637 259.957 12.9121 259.785 13.0137 259.559C13.1178 259.329 13.1699 259.049 13.1699 258.719V253ZM19.7363 258.547V255H20.6582V261H19.7363V259.984H19.6738C19.5332 260.289 19.3145 260.548 19.0176 260.762C18.7207 260.973 18.3457 261.078 17.8926 261.078C17.5176 261.078 17.1842 260.996 16.8926 260.832C16.6009 260.665 16.3717 260.415 16.2051 260.082C16.0384 259.746 15.9551 259.323 15.9551 258.812V255H16.877V258.75C16.877 259.187 16.9993 259.536 17.2441 259.797C17.4915 260.057 17.8066 260.187 18.1895 260.187C18.4186 260.187 18.6517 260.129 18.8887 260.012C19.1283 259.895 19.3288 259.715 19.4902 259.473C19.6543 259.23 19.7363 258.922 19.7363 258.547ZM23.2686 257.391V261H22.3467V255H23.2373V255.937H23.3154C23.4561 255.633 23.6696 255.388 23.9561 255.203C24.2425 255.016 24.6123 254.922 25.0654 254.922C25.4717 254.922 25.8271 255.005 26.1318 255.172C26.4365 255.336 26.6735 255.586 26.8428 255.922C27.012 256.255 27.0967 256.677 27.0967 257.188V261H26.1748V257.25C26.1748 256.779 26.0524 256.411 25.8076 256.148C25.5628 255.883 25.2269 255.75 24.7998 255.75C24.5055 255.75 24.2425 255.814 24.0107 255.941C23.7816 256.069 23.6006 256.255 23.4678 256.5C23.335 256.745 23.2686 257.042 23.2686 257.391ZM29.7031 257.391V261H28.7813V253H29.7031V255.937H29.7813C29.9219 255.628 30.1328 255.382 30.4141 255.199C30.6979 255.014 31.0755 254.922 31.5469 254.922C31.9557 254.922 32.3138 255.004 32.6211 255.168C32.9284 255.329 33.1667 255.578 33.3359 255.914C33.5078 256.247 33.5938 256.672 33.5938 257.188V261H32.6719V257.25C32.6719 256.773 32.5482 256.405 32.3008 256.145C32.056 255.882 31.7161 255.75 31.2813 255.75C30.9792 255.75 30.7083 255.814 30.4688 255.941C30.2318 256.069 30.0443 256.255 29.9063 256.5C29.7708 256.745 29.7031 257.042 29.7031 257.391ZM37.7178 261.125C37.1761 261.125 36.7008 260.996 36.292 260.738C35.8857 260.48 35.568 260.12 35.3389 259.656C35.1123 259.193 34.999 258.651 34.999 258.031C34.999 257.406 35.1123 256.861 35.3389 256.395C35.568 255.928 35.8857 255.566 36.292 255.309C36.7008 255.051 37.1761 254.922 37.7178 254.922C38.2594 254.922 38.7334 255.051 39.1396 255.309C39.5485 255.566 39.8662 255.928 40.0928 256.395C40.3219 256.861 40.4365 257.406 40.4365 258.031C40.4365 258.651 40.3219 259.193 40.0928 259.656C39.8662 260.12 39.5485 260.48 39.1396 260.738C38.7334 260.996 38.2594 261.125 37.7178 261.125ZM37.7178 260.297C38.1292 260.297 38.4678 260.191 38.7334 259.98C38.999 259.77 39.1956 259.492 39.3232 259.148C39.4508 258.805 39.5146 258.432 39.5146 258.031C39.5146 257.63 39.4508 257.257 39.3232 256.91C39.1956 256.564 38.999 256.284 38.7334 256.07C38.4678 255.857 38.1292 255.75 37.7178 255.75C37.3063 255.75 36.9678 255.857 36.7021 256.07C36.4365 256.284 36.2399 256.564 36.1123 256.91C35.9847 257.257 35.9209 257.63 35.9209 258.031C35.9209 258.432 35.9847 258.805 36.1123 259.148C36.2399 259.492 36.4365 259.77 36.7021 259.98C36.9678 260.191 37.3063 260.297 37.7178 260.297Z" fill="#666666"/>
<path d="M56 345.109C55.4115 345.109 54.9102 344.949 54.4961 344.629C54.082 344.306 53.7656 343.839 53.5469 343.227C53.3281 342.612 53.2188 341.87 53.2188 341C53.2188 340.135 53.3281 339.397 53.5469 338.785C53.7682 338.171 54.0859 337.702 54.5 337.379C54.9167 337.053 55.4167 336.891 56 336.891C56.5833 336.891 57.082 337.053 57.4961 337.379C57.9128 337.702 58.2305 338.171 58.4492 338.785C58.6706 339.397 58.7813 340.135 58.7813 341C58.7813 341.87 58.6719 342.612 58.4531 343.227C58.2344 343.839 57.918 344.306 57.5039 344.629C57.0898 344.949 56.5885 345.109 56 345.109ZM56 344.25C56.5833 344.25 57.0365 343.969 57.3594 343.406C57.6823 342.844 57.8438 342.042 57.8438 341C57.8438 340.307 57.7695 339.717 57.6211 339.23C57.4753 338.743 57.2643 338.372 56.9883 338.117C56.7148 337.862 56.3854 337.734 56 337.734C55.4219 337.734 54.9701 338.02 54.6445 338.59C54.319 339.158 54.1563 339.961 54.1563 341C54.1563 341.693 54.2292 342.281 54.375 342.766C54.5208 343.25 54.7305 343.618 55.0039 343.871C55.2799 344.124 55.612 344.25 56 344.25Z" fill="#666666"/>
<path d="M112.047 337V345H111.078V338.016H111.031L109.078 339.312V338.328L111.078 337H112.047ZM116.957 345.109C116.368 345.109 115.867 344.949 115.453 344.629C115.039 344.306 114.722 343.839 114.504 343.227C114.285 342.612 114.175 341.87 114.175 341C114.175 340.135 114.285 339.397 114.504 338.785C114.725 338.171 115.043 337.702 115.457 337.379C115.873 337.053 116.373 336.891 116.957 336.891C117.54 336.891 118.039 337.053 118.453 337.379C118.869 337.702 119.187 338.171 119.406 338.785C119.627 339.397 119.738 340.135 119.738 341C119.738 341.87 119.629 342.612 119.41 343.227C119.191 343.839 118.875 344.306 118.461 344.629C118.047 344.949 117.545 345.109 116.957 345.109ZM116.957 344.25C117.54 344.25 117.993 343.969 118.316 343.406C118.639 342.844 118.8 342.042 118.8 341C118.8 340.307 118.726 339.717 118.578 339.23C118.432 338.743 118.221 338.372 117.945 338.117C117.672 337.862 117.342 337.734 116.957 337.734C116.379 337.734 115.927 338.02 115.601 338.59C115.276 339.158 115.113 339.961 115.113 341C115.113 341.693 115.186 342.281 115.332 342.766C115.477 343.25 115.687 343.618 115.961 343.871C116.237 344.124 116.569 344.25 116.957 344.25Z" fill="#666666"/>
<path d="M166.861 345V344.297L169.501 341.406C169.811 341.068 170.066 340.773 170.267 340.523C170.467 340.271 170.616 340.034 170.712 339.812C170.811 339.589 170.861 339.354 170.861 339.109C170.861 338.828 170.793 338.585 170.657 338.379C170.525 338.173 170.342 338.014 170.111 337.902C169.879 337.79 169.618 337.734 169.329 337.734C169.022 337.734 168.754 337.798 168.525 337.926C168.298 338.051 168.122 338.227 167.997 338.453C167.875 338.68 167.814 338.945 167.814 339.25H166.892C166.892 338.781 167 338.37 167.216 338.016C167.432 337.661 167.726 337.385 168.099 337.187C168.474 336.99 168.894 336.891 169.361 336.891C169.829 336.891 170.245 336.99 170.607 337.187C170.969 337.385 171.253 337.652 171.458 337.988C171.664 338.324 171.767 338.698 171.767 339.109C171.767 339.404 171.713 339.691 171.607 339.973C171.503 340.251 171.32 340.562 171.06 340.906C170.802 341.247 170.444 341.664 169.986 342.156L168.189 344.078V344.141H171.907V345H166.861ZM176.13 345.109C175.542 345.109 175.04 344.949 174.626 344.629C174.212 344.306 173.896 343.839 173.677 343.227C173.458 342.612 173.349 341.87 173.349 341C173.349 340.135 173.458 339.397 173.677 338.785C173.898 338.171 174.216 337.702 174.63 337.379C175.047 337.053 175.547 336.891 176.13 336.891C176.713 336.891 177.212 337.053 177.626 337.379C178.043 337.702 178.361 338.171 178.579 338.785C178.801 339.397 178.911 340.135 178.911 341C178.911 341.87 178.802 342.612 178.583 343.227C178.365 343.839 178.048 344.306 177.634 344.629C177.22 344.949 176.719 345.109 176.13 345.109ZM176.13 344.25C176.713 344.25 177.167 343.969 177.49 343.406C177.812 342.844 177.974 342.042 177.974 341C177.974 340.307 177.9 339.717 177.751 339.23C177.605 338.743 177.394 338.372 177.118 338.117C176.845 337.862 176.516 337.734 176.13 337.734C175.552 337.734 175.1 338.02 174.775 338.59C174.449 339.158 174.286 339.961 174.286 341C174.286 341.693 174.359 342.281 174.505 342.766C174.651 343.25 174.861 343.618 175.134 343.871C175.41 344.124 175.742 344.25 176.13 344.25Z" fill="#666666"/>
<path d="M227.792 345.109C227.276 345.109 226.816 345.021 226.413 344.844C226.012 344.667 225.693 344.421 225.456 344.105C225.221 343.788 225.094 343.419 225.073 343H226.057C226.078 343.258 226.167 343.48 226.323 343.668C226.479 343.853 226.684 343.996 226.936 344.098C227.189 344.199 227.469 344.25 227.776 344.25C228.12 344.25 228.425 344.19 228.69 344.07C228.956 343.951 229.164 343.784 229.315 343.57C229.466 343.357 229.542 343.109 229.542 342.828C229.542 342.534 229.469 342.275 229.323 342.051C229.177 341.824 228.964 341.647 228.682 341.52C228.401 341.392 228.057 341.328 227.651 341.328H227.01V340.469H227.651C227.969 340.469 228.247 340.411 228.487 340.297C228.729 340.182 228.918 340.021 229.053 339.812C229.191 339.604 229.26 339.359 229.26 339.078C229.26 338.807 229.201 338.572 229.081 338.371C228.961 338.171 228.792 338.014 228.573 337.902C228.357 337.79 228.102 337.734 227.807 337.734C227.531 337.734 227.271 337.785 227.026 337.887C226.784 337.986 226.586 338.13 226.432 338.32C226.279 338.508 226.195 338.734 226.182 339H225.245C225.26 338.581 225.387 338.214 225.624 337.898C225.861 337.581 226.171 337.333 226.553 337.156C226.939 336.979 227.362 336.891 227.823 336.891C228.318 336.891 228.742 336.991 229.096 337.191C229.451 337.389 229.723 337.651 229.913 337.977C230.103 338.302 230.198 338.654 230.198 339.031C230.198 339.482 230.08 339.866 229.843 340.184C229.608 340.501 229.289 340.721 228.885 340.844V340.906C229.391 340.99 229.785 341.204 230.069 341.551C230.353 341.895 230.495 342.32 230.495 342.828C230.495 343.263 230.376 343.654 230.139 344C229.905 344.344 229.585 344.615 229.178 344.812C228.772 345.01 228.31 345.109 227.792 345.109ZM234.702 345.109C234.113 345.109 233.612 344.949 233.198 344.629C232.784 344.306 232.468 343.839 232.249 343.227C232.03 342.612 231.921 341.87 231.921 341C231.921 340.135 232.03 339.397 232.249 338.785C232.47 338.171 232.788 337.702 233.202 337.379C233.619 337.053 234.119 336.891 234.702 336.891C235.285 336.891 235.784 337.053 236.198 337.379C236.615 337.702 236.932 338.171 237.151 338.785C237.372 339.397 237.483 340.135 237.483 341C237.483 341.87 237.374 342.612 237.155 343.227C236.936 343.839 236.62 344.306 236.206 344.629C235.792 344.949 235.29 345.109 234.702 345.109ZM234.702 344.25C235.285 344.25 235.738 343.969 236.061 343.406C236.384 342.844 236.546 342.042 236.546 341C236.546 340.307 236.471 339.717 236.323 339.23C236.177 338.743 235.966 338.372 235.69 338.117C235.417 337.862 235.087 337.734 234.702 337.734C234.124 337.734 233.672 338.02 233.346 338.59C233.021 339.158 232.858 339.961 232.858 341C232.858 341.693 232.931 342.281 233.077 342.766C233.223 343.25 233.432 343.618 233.706 343.871C233.982 344.124 234.314 344.25 234.702 344.25Z" fill="#666666"/>
<path d="M283.274 343.359V342.562L286.79 337H287.368V338.234H286.977L284.321 342.437V342.5H289.056V343.359H283.274ZM287.04 345V343.117V342.746V337H287.962V345H287.04ZM293.129 345.109C292.54 345.109 292.039 344.949 291.625 344.629C291.211 344.306 290.894 343.839 290.676 343.227C290.457 342.612 290.348 341.87 290.348 341C290.348 340.135 290.457 339.397 290.676 338.785C290.897 338.171 291.215 337.702 291.629 337.379C292.045 337.053 292.545 336.891 293.129 336.891C293.712 336.891 294.211 337.053 294.625 337.379C295.042 337.702 295.359 338.171 295.578 338.785C295.799 339.397 295.91 340.135 295.91 341C295.91 341.87 295.801 342.612 295.582 343.227C295.363 343.839 295.047 344.306 294.633 344.629C294.219 344.949 293.717 345.109 293.129 345.109ZM293.129 344.25C293.712 344.25 294.165 343.969 294.488 343.406C294.811 342.844 294.973 342.042 294.973 341C294.973 340.307 294.898 339.717 294.75 339.23C294.604 338.743 294.393 338.372 294.117 338.117C293.844 337.862 293.514 337.734 293.129 337.734C292.551 337.734 292.099 338.02 291.773 338.59C291.448 339.158 291.285 339.961 291.285 341C291.285 341.693 291.358 342.281 291.504 342.766C291.65 343.25 291.859 343.618 292.133 343.871C292.409 344.124 292.741 344.25 293.129 344.25Z" fill="#666666"/>
<path d="M344.544 345.109C344.086 345.109 343.673 345.018 343.306 344.836C342.939 344.654 342.645 344.404 342.423 344.086C342.202 343.768 342.081 343.406 342.06 343H342.998C343.034 343.362 343.198 343.661 343.49 343.898C343.784 344.133 344.136 344.25 344.544 344.25C344.873 344.25 345.164 344.173 345.419 344.02C345.677 343.866 345.879 343.655 346.025 343.387C346.173 343.116 346.248 342.81 346.248 342.469C346.248 342.12 346.171 341.809 346.017 341.535C345.866 341.259 345.658 341.042 345.392 340.883C345.126 340.724 344.823 340.643 344.482 340.641C344.237 340.638 343.986 340.676 343.728 340.754C343.47 340.829 343.258 340.927 343.091 341.047L342.185 340.937L342.669 337H346.826V337.859H343.482L343.201 340.219H343.248C343.412 340.089 343.617 339.98 343.865 339.895C344.112 339.809 344.37 339.766 344.638 339.766C345.128 339.766 345.564 339.883 345.947 340.117C346.332 340.349 346.634 340.667 346.853 341.07C347.074 341.474 347.185 341.935 347.185 342.453C347.185 342.964 347.07 343.419 346.841 343.82C346.615 344.219 346.302 344.534 345.904 344.766C345.505 344.995 345.052 345.109 344.544 345.109ZM351.346 345.109C350.758 345.109 350.256 344.949 349.842 344.629C349.428 344.306 349.112 343.839 348.893 343.227C348.674 342.612 348.565 341.87 348.565 341C348.565 340.135 348.674 339.397 348.893 338.785C349.114 338.171 349.432 337.702 349.846 337.379C350.263 337.053 350.763 336.891 351.346 336.891C351.93 336.891 352.428 337.053 352.842 337.379C353.259 337.702 353.577 338.171 353.795 338.785C354.017 339.397 354.127 340.135 354.127 341C354.127 341.87 354.018 342.612 353.799 343.227C353.581 343.839 353.264 344.306 352.85 344.629C352.436 344.949 351.935 345.109 351.346 345.109ZM351.346 344.25C351.93 344.25 352.383 343.969 352.706 343.406C353.028 342.844 353.19 342.042 353.19 341C353.19 340.307 353.116 339.717 352.967 339.23C352.821 338.743 352.611 338.372 352.334 338.117C352.061 337.862 351.732 337.734 351.346 337.734C350.768 337.734 350.316 338.02 349.991 338.59C349.665 339.158 349.502 339.961 349.502 341C349.502 341.693 349.575 342.281 349.721 342.766C349.867 343.25 350.077 343.618 350.35 343.871C350.626 344.124 350.958 344.25 351.346 344.25Z" fill="#666666"/>
<path d="M403.015 345.109C402.687 345.104 402.359 345.042 402.03 344.922C401.702 344.802 401.403 344.6 401.132 344.316C400.861 344.03 400.644 343.643 400.48 343.156C400.316 342.667 400.234 342.052 400.234 341.312C400.234 340.604 400.3 339.977 400.433 339.43C400.566 338.88 400.758 338.418 401.011 338.043C401.263 337.665 401.568 337.379 401.925 337.184C402.284 336.988 402.689 336.891 403.14 336.891C403.588 336.891 403.986 336.98 404.335 337.16C404.687 337.337 404.973 337.585 405.194 337.902C405.416 338.22 405.559 338.586 405.624 339H404.671C404.582 338.641 404.411 338.342 404.155 338.105C403.9 337.868 403.562 337.75 403.14 337.75C402.52 337.75 402.032 338.02 401.675 338.559C401.321 339.098 401.142 339.854 401.14 340.828H401.202C401.348 340.607 401.521 340.418 401.722 340.262C401.925 340.103 402.149 339.98 402.394 339.895C402.638 339.809 402.898 339.766 403.171 339.766C403.629 339.766 404.049 339.88 404.429 340.109C404.809 340.336 405.114 340.65 405.343 341.051C405.572 341.449 405.687 341.906 405.687 342.422C405.687 342.917 405.576 343.37 405.355 343.781C405.133 344.19 404.822 344.516 404.421 344.758C404.023 344.997 403.554 345.115 403.015 345.109ZM403.015 344.25C403.343 344.25 403.637 344.168 403.898 344.004C404.161 343.84 404.368 343.62 404.519 343.344C404.672 343.068 404.749 342.76 404.749 342.422C404.749 342.091 404.675 341.79 404.526 341.52C404.381 341.246 404.179 341.029 403.921 340.867C403.666 340.706 403.374 340.625 403.046 340.625C402.799 340.625 402.568 340.674 402.355 340.773C402.141 340.87 401.954 341.003 401.792 341.172C401.633 341.341 401.508 341.535 401.417 341.754C401.326 341.97 401.28 342.198 401.28 342.437C401.28 342.755 401.355 343.052 401.503 343.328C401.654 343.604 401.86 343.827 402.12 343.996C402.383 344.165 402.681 344.25 403.015 344.25ZM409.832 345.109C409.244 345.109 408.742 344.949 408.328 344.629C407.914 344.306 407.598 343.839 407.379 343.227C407.16 342.612 407.051 341.87 407.051 341C407.051 340.135 407.16 339.397 407.379 338.785C407.6 338.171 407.918 337.702 408.332 337.379C408.749 337.053 409.249 336.891 409.832 336.891C410.415 336.891 410.914 337.053 411.328 337.379C411.745 337.702 412.063 338.171 412.281 338.785C412.503 339.397 412.613 340.135 412.613 341C412.613 341.87 412.504 342.612 412.285 343.227C412.067 343.839 411.75 344.306 411.336 344.629C410.922 344.949 410.421 345.109 409.832 345.109ZM409.832 344.25C410.415 344.25 410.869 343.969 411.192 343.406C411.514 342.844 411.676 342.042 411.676 341C411.676 340.307 411.602 339.717 411.453 339.23C411.307 338.743 411.096 338.372 410.82 338.117C410.547 337.862 410.218 337.734 409.832 337.734C409.254 337.734 408.802 338.02 408.477 338.59C408.151 339.158 407.988 339.961 407.988 341C407.988 341.693 408.061 342.281 408.207 342.766C408.353 343.25 408.563 343.618 408.836 343.871C409.112 344.124 409.444 344.25 409.832 344.25Z" fill="#666666"/>
<path d="M459.385 345L462.963 337.922V337.859H458.838V337H463.963V337.906L460.4 345H459.385ZM467.856 345.109C467.268 345.109 466.766 344.949 466.352 344.629C465.938 344.306 465.622 343.839 465.403 343.227C465.184 342.612 465.075 341.87 465.075 341C465.075 340.135 465.184 339.397 465.403 338.785C465.624 338.171 465.942 337.702 466.356 337.379C466.773 337.053 467.273 336.891 467.856 336.891C468.44 336.891 468.938 337.053 469.352 337.379C469.769 337.702 470.087 338.171 470.305 338.785C470.527 339.397 470.637 340.135 470.637 341C470.637 341.87 470.528 342.612 470.309 343.227C470.091 343.839 469.774 344.306 469.36 344.629C468.946 344.949 468.445 345.109 467.856 345.109ZM467.856 344.25C468.44 344.25 468.893 343.969 469.216 343.406C469.538 342.844 469.7 342.042 469.7 341C469.7 340.307 469.626 339.717 469.477 339.23C469.331 338.743 469.121 338.372 468.844 338.117C468.571 337.862 468.242 337.734 467.856 337.734C467.278 337.734 466.826 338.02 466.501 338.59C466.175 339.158 466.012 339.961 466.012 341C466.012 341.693 466.085 342.281 466.231 342.766C466.377 343.25 466.587 343.618 466.86 343.871C467.136 344.124 467.468 344.25 467.856 344.25Z" fill="#666666"/>
<path d="M519.764 345.109C519.227 345.109 518.753 345.014 518.342 344.824C517.933 344.632 517.614 344.367 517.385 344.031C517.156 343.693 517.043 343.307 517.045 342.875C517.043 342.536 517.109 342.224 517.244 341.937C517.38 341.648 517.565 341.408 517.799 341.215C518.036 341.02 518.3 340.896 518.592 340.844V340.797C518.209 340.698 517.905 340.483 517.678 340.152C517.451 339.819 517.339 339.44 517.342 339.016C517.339 338.609 517.442 338.246 517.651 337.926C517.859 337.605 518.145 337.353 518.51 337.168C518.877 336.983 519.295 336.891 519.764 336.891C520.227 336.891 520.642 336.983 521.006 337.168C521.371 337.353 521.657 337.605 521.865 337.926C522.076 338.246 522.183 338.609 522.186 339.016C522.183 339.44 522.067 339.819 521.838 340.152C521.612 340.483 521.311 340.698 520.936 340.797V340.844C521.225 340.896 521.485 341.02 521.717 341.215C521.949 341.408 522.134 341.648 522.272 341.937C522.41 342.224 522.48 342.536 522.483 342.875C522.48 343.307 522.363 343.693 522.131 344.031C521.902 344.367 521.583 344.632 521.174 344.824C520.768 345.014 520.298 345.109 519.764 345.109ZM519.764 344.25C520.126 344.25 520.438 344.191 520.701 344.074C520.964 343.957 521.168 343.792 521.311 343.578C521.454 343.365 521.527 343.115 521.53 342.828C521.527 342.526 521.449 342.259 521.295 342.027C521.142 341.796 520.932 341.613 520.666 341.48C520.403 341.348 520.102 341.281 519.764 341.281C519.423 341.281 519.118 341.348 518.85 341.48C518.584 341.613 518.375 341.796 518.221 342.027C518.07 342.259 517.996 342.526 517.998 342.828C517.996 343.115 518.065 343.365 518.205 343.578C518.349 343.792 518.553 343.957 518.819 344.074C519.084 344.191 519.399 344.25 519.764 344.25ZM519.764 340.453C520.05 340.453 520.304 340.396 520.526 340.281C520.75 340.167 520.925 340.007 521.053 339.801C521.181 339.595 521.246 339.354 521.248 339.078C521.246 338.807 521.182 338.572 521.057 338.371C520.932 338.168 520.759 338.012 520.537 337.902C520.316 337.79 520.058 337.734 519.764 337.734C519.464 337.734 519.203 337.79 518.979 337.902C518.755 338.012 518.582 338.168 518.459 338.371C518.337 338.572 518.277 338.807 518.28 339.078C518.277 339.354 518.338 339.595 518.463 339.801C518.591 340.007 518.767 340.167 518.99 340.281C519.214 340.396 519.472 340.453 519.764 340.453ZM526.589 345.109C526.001 345.109 525.499 344.949 525.085 344.629C524.671 344.306 524.355 343.839 524.136 343.227C523.917 342.612 523.808 341.87 523.808 341C523.808 340.135 523.917 339.397 524.136 338.785C524.357 338.171 524.675 337.702 525.089 337.379C525.506 337.053 526.006 336.891 526.589 336.891C527.172 336.891 527.671 337.053 528.085 337.379C528.502 337.702 528.82 338.171 529.038 338.785C529.26 339.397 529.37 340.135 529.37 341C529.37 341.87 529.261 342.612 529.042 343.227C528.823 343.839 528.507 344.306 528.093 344.629C527.679 344.949 527.178 345.109 526.589 345.109ZM526.589 344.25C527.172 344.25 527.626 343.969 527.948 343.406C528.271 342.844 528.433 342.042 528.433 341C528.433 340.307 528.359 339.717 528.21 339.23C528.064 338.743 527.853 338.372 527.577 338.117C527.304 337.862 526.975 337.734 526.589 337.734C526.011 337.734 525.559 338.02 525.234 338.59C524.908 339.158 524.745 339.961 524.745 341C524.745 341.693 524.818 342.281 524.964 342.766C525.11 343.25 525.32 343.618 525.593 343.871C525.869 344.124 526.201 344.25 526.589 344.25Z" fill="#666666"/>
<path d="M578.105 336.891C578.433 336.893 578.762 336.956 579.09 337.078C579.418 337.201 579.717 337.404 579.988 337.687C580.259 337.969 580.476 338.353 580.641 338.84C580.805 339.327 580.887 339.937 580.887 340.672C580.887 341.383 580.819 342.014 580.683 342.566C580.551 343.116 580.358 343.579 580.105 343.957C579.855 344.335 579.551 344.621 579.191 344.816C578.835 345.012 578.431 345.109 577.98 345.109C577.532 345.109 577.133 345.021 576.781 344.844C576.432 344.664 576.146 344.415 575.922 344.098C575.7 343.777 575.558 343.406 575.496 342.984H576.449C576.535 343.352 576.706 343.655 576.961 343.895C577.219 344.132 577.558 344.25 577.98 344.25C578.598 344.25 579.085 343.98 579.441 343.441C579.801 342.902 579.98 342.141 579.98 341.156H579.918C579.772 341.375 579.599 341.564 579.398 341.723C579.198 341.882 578.975 342.004 578.73 342.09C578.486 342.176 578.225 342.219 577.949 342.219C577.491 342.219 577.07 342.105 576.687 341.879C576.307 341.65 576.002 341.336 575.773 340.937C575.547 340.536 575.433 340.078 575.433 339.562C575.433 339.073 575.543 338.625 575.762 338.219C575.983 337.81 576.293 337.484 576.691 337.242C577.092 337 577.564 336.883 578.105 336.891ZM578.105 337.75C577.777 337.75 577.482 337.832 577.219 337.996C576.958 338.158 576.751 338.376 576.598 338.652C576.446 338.926 576.371 339.229 576.371 339.562C576.371 339.896 576.444 340.199 576.59 340.473C576.738 340.743 576.94 340.96 577.195 341.121C577.453 341.28 577.746 341.359 578.074 341.359C578.321 341.359 578.552 341.311 578.766 341.215C578.979 341.116 579.165 340.982 579.324 340.812C579.486 340.641 579.612 340.447 579.703 340.23C579.794 340.012 579.84 339.784 579.84 339.547C579.84 339.234 579.764 338.941 579.613 338.668C579.465 338.395 579.259 338.173 578.996 338.004C578.736 337.835 578.439 337.75 578.105 337.75ZM585.032 345.109C584.444 345.109 583.942 344.949 583.528 344.629C583.114 344.306 582.798 343.839 582.579 343.227C582.36 342.612 582.251 341.87 582.251 341C582.251 340.135 582.36 339.397 582.579 338.785C582.8 338.171 583.118 337.702 583.532 337.379C583.949 337.053 584.449 336.891 585.032 336.891C585.615 336.891 586.114 337.053 586.528 337.379C586.945 337.702 587.263 338.171 587.481 338.785C587.703 339.397 587.813 340.135 587.813 341C587.813 341.87 587.704 342.612 587.485 343.227C587.266 343.839 586.95 344.306 586.536 344.629C586.122 344.949 585.621 345.109 585.032 345.109ZM585.032 344.25C585.615 344.25 586.069 343.969 586.391 343.406C586.714 342.844 586.876 342.042 586.876 341C586.876 340.307 586.802 339.717 586.653 339.23C586.507 338.743 586.296 338.372 586.02 338.117C585.747 337.862 585.418 337.734 585.032 337.734C584.454 337.734 584.002 338.02 583.677 338.59C583.351 339.158 583.188 339.961 583.188 341C583.188 341.693 583.261 342.281 583.407 342.766C583.553 343.25 583.763 343.618 584.036 343.871C584.312 344.124 584.644 344.25 585.032 344.25Z" fill="#666666"/>
<path d="M624.943 337V345H623.975V338.016H623.928L621.975 339.312V338.328L623.975 337H624.943ZM629.854 345.109C629.265 345.109 628.764 344.949 628.35 344.629C627.936 344.306 627.619 343.839 627.4 343.227C627.182 342.612 627.072 341.87 627.072 341C627.072 340.135 627.182 339.397 627.4 338.785C627.622 338.171 627.939 337.702 628.354 337.379C628.77 337.053 629.27 336.891 629.854 336.891C630.437 336.891 630.936 337.053 631.35 337.379C631.766 337.702 632.084 338.171 632.303 338.785C632.524 339.397 632.635 340.135 632.635 341C632.635 341.87 632.525 342.612 632.307 343.227C632.088 343.839 631.771 344.306 631.357 344.629C630.943 344.949 630.442 345.109 629.854 345.109ZM629.854 344.25C630.437 344.25 630.89 343.969 631.213 343.406C631.536 342.844 631.697 342.042 631.697 341C631.697 340.307 631.623 339.717 631.475 339.23C631.329 338.743 631.118 338.372 630.842 338.117C630.568 337.862 630.239 337.734 629.854 337.734C629.275 337.734 628.824 338.02 628.498 338.59C628.173 339.158 628.01 339.961 628.01 341C628.01 341.693 628.083 342.281 628.229 342.766C628.374 343.25 628.584 343.618 628.857 343.871C629.133 344.124 629.465 344.25 629.854 344.25ZM636.729 345.109C636.14 345.109 635.639 344.949 635.225 344.629C634.811 344.306 634.494 343.839 634.275 343.227C634.057 342.612 633.947 341.87 633.947 341C633.947 340.135 634.057 339.397 634.275 338.785C634.497 338.171 634.814 337.702 635.229 337.379C635.645 337.053 636.145 336.891 636.729 336.891C637.312 336.891 637.811 337.053 638.225 337.379C638.641 337.702 638.959 338.171 639.178 338.785C639.399 339.397 639.51 340.135 639.51 341C639.51 341.87 639.4 342.612 639.182 343.227C638.963 343.839 638.646 344.306 638.232 344.629C637.818 344.949 637.317 345.109 636.729 345.109ZM636.729 344.25C637.312 344.25 637.765 343.969 638.088 343.406C638.411 342.844 638.572 342.042 638.572 341C638.572 340.307 638.498 339.717 638.35 339.23C638.204 338.743 637.993 338.372 637.717 338.117C637.443 337.862 637.114 337.734 636.729 337.734C636.15 337.734 635.699 338.02 635.373 338.59C635.048 339.158 634.885 339.961 634.885 341C634.885 341.693 634.958 342.281 635.104 342.766C635.249 343.25 635.459 343.618 635.732 343.871C636.008 344.124 636.34 344.25 636.729 344.25Z" fill="#666666"/>
</g>
<defs>
<clipPath id="clip0_176_4855">
<rect width="650" height="400" fill="white"/>
</clipPath>
</defs>
</svg>
