<svg width="700" height="300" viewBox="0 0 700 300" fill="none" xmlns="http://www.w3.org/2000/svg">
<g clip-path="url(#clip0_201_4568)">
<path d="M700 0H0V300H700V0Z" fill="white"/>
<path d="M349.985 73C366.446 72.9966 382.438 78.4819 395.432 88.5881C408.425 98.6942 417.678 112.844 421.727 128.8C425.775 144.755 424.389 161.605 417.785 176.684C411.182 191.762 399.74 204.209 385.269 212.054L372.925 189.285C382.331 184.186 389.769 176.095 394.061 166.294C398.353 156.493 399.254 145.541 396.622 135.17C393.991 124.799 387.976 115.601 379.531 109.032C371.085 102.463 360.69 98.8978 349.99 98.9L349.985 73Z" fill="#94D13D" stroke="white" stroke-linejoin="round"/>
<path d="M385.204 212.09C374.393 217.937 362.295 220.999 350.003 221C337.712 221.001 325.614 217.939 314.802 212.093C303.99 206.246 294.804 197.799 288.075 187.513C281.346 177.227 277.285 165.427 276.258 153.179L302.068 151.016C302.735 158.978 305.375 166.648 309.749 173.333C314.123 180.019 320.093 185.51 327.121 189.31C334.149 193.111 342.013 195.1 350.002 195.1C357.992 195.1 365.855 193.109 372.883 189.308L385.204 212.09Z" fill="#6F58E9" stroke="white" stroke-linejoin="round"/>
<path d="M276.252 153.105C275.239 140.862 277.289 128.559 282.219 117.306C287.149 106.053 294.803 96.2046 304.49 88.6492L320.418 109.072C314.122 113.983 309.147 120.384 305.942 127.699C302.738 135.013 301.405 143.01 302.064 150.968L276.252 153.105Z" fill="#2D99FE" stroke="white" stroke-linejoin="round"/>
<path d="M304.548 88.6036C317.513 78.5124 333.468 73.0228 349.897 73L349.933 98.9C339.254 98.9148 328.884 102.483 320.456 109.042L304.548 88.6036Z" fill="#2DDAC1" stroke="white" stroke-linejoin="round"/>
<path d="M688.5 10.5H668.5C667.395 10.5 666.5 11.3954 666.5 12.5V30.5C666.5 31.6046 667.395 32.5 668.5 32.5H688.5C689.605 32.5 690.5 31.6046 690.5 30.5V12.5C690.5 11.3954 689.605 10.5 688.5 10.5Z" fill="white"/>
<path d="M672 16.5H686ZM672 21.5H686ZM672 26.5H686Z" fill="#666666"/>
<path d="M672 16.5H686M672 21.5H686M672 26.5H686" stroke="#666666" stroke-width="3" stroke-linecap="round"/>
<path d="M320.631 10.9091L324.517 21.929H324.671L328.557 10.9091H330.219L325.412 24H323.776L318.969 10.9091H320.631ZM335.256 24.2045C334.31 24.2045 333.494 23.9957 332.808 23.5781C332.126 23.1562 331.6 22.5682 331.229 21.8139C330.862 21.0554 330.679 20.1733 330.679 19.1676C330.679 18.1619 330.862 17.2756 331.229 16.5085C331.6 15.7372 332.115 15.1364 332.776 14.706C333.441 14.2713 334.216 14.054 335.103 14.054C335.614 14.054 336.119 14.1392 336.617 14.3097C337.116 14.4801 337.57 14.7571 337.979 15.1406C338.388 15.5199 338.714 16.0227 338.957 16.6491C339.2 17.2756 339.321 18.0469 339.321 18.9631V19.6023H331.753V18.2983H337.787C337.787 17.7443 337.676 17.25 337.455 16.8153C337.237 16.3807 336.926 16.0376 336.522 15.7862C336.121 15.5348 335.648 15.4091 335.103 15.4091C334.502 15.4091 333.982 15.5582 333.543 15.8565C333.108 16.1506 332.774 16.5341 332.539 17.0071C332.305 17.4801 332.188 17.9872 332.188 18.5284V19.3977C332.188 20.1392 332.316 20.7678 332.571 21.2834C332.831 21.7947 333.191 22.1847 333.652 22.4531C334.112 22.7173 334.647 22.8494 335.256 22.8494C335.652 22.8494 336.01 22.794 336.33 22.6832C336.654 22.5682 336.933 22.3977 337.167 22.1719C337.402 21.9418 337.583 21.6562 337.71 21.3153L339.168 21.7244C339.014 22.2188 338.757 22.6534 338.394 23.0284C338.032 23.3991 337.585 23.6889 337.052 23.8977C336.519 24.1023 335.921 24.2045 335.256 24.2045ZM343.125 18.0938V24H341.616V14.1818H343.073V15.7159H343.201C343.431 15.2173 343.781 14.8168 344.25 14.5142C344.718 14.2074 345.323 14.054 346.065 14.054C346.73 14.054 347.311 14.1903 347.81 14.4631C348.309 14.7315 348.696 15.1406 348.973 15.6903C349.25 16.2358 349.389 16.9261 349.389 17.7614V24H347.88V17.8636C347.88 17.0923 347.68 16.4915 347.279 16.0611C346.879 15.6264 346.329 15.4091 345.63 15.4091C345.149 15.4091 344.718 15.5135 344.339 15.7223C343.964 15.9311 343.668 16.2358 343.451 16.6364C343.233 17.0369 343.125 17.5227 343.125 18.0938ZM355.853 24.2045C355.035 24.2045 354.312 23.9979 353.686 23.5845C353.059 23.1669 352.569 22.5788 352.216 21.8203C351.862 21.0575 351.685 20.1562 351.685 19.1165C351.685 18.0852 351.862 17.1903 352.216 16.4318C352.569 15.6733 353.062 15.0874 353.692 14.674C354.323 14.2607 355.052 14.054 355.878 14.054C356.517 14.054 357.022 14.1605 357.393 14.3736C357.768 14.5824 358.054 14.821 358.25 15.0895C358.45 15.3537 358.606 15.571 358.716 15.7415H358.844V10.9091H360.353V24H358.895V22.4915H358.716C358.606 22.6705 358.448 22.8963 358.243 23.169C358.039 23.4375 357.747 23.6783 357.368 23.8913C356.988 24.1001 356.483 24.2045 355.853 24.2045ZM356.057 22.8494C356.662 22.8494 357.174 22.6918 357.591 22.3764C358.009 22.0568 358.326 21.6158 358.544 21.0533C358.761 20.4865 358.87 19.8324 358.87 19.0909C358.87 18.358 358.763 17.7166 358.55 17.1669C358.337 16.6129 358.022 16.1825 357.604 15.8757C357.187 15.5646 356.671 15.4091 356.057 15.4091C355.418 15.4091 354.885 15.5732 354.459 15.9013C354.037 16.2251 353.72 16.6662 353.507 17.2244C353.298 17.7784 353.194 18.4006 353.194 19.0909C353.194 19.7898 353.3 20.4247 353.513 20.9957C353.731 21.5625 354.05 22.0142 354.472 22.3509C354.898 22.6832 355.427 22.8494 356.057 22.8494ZM366.214 24.2301C365.592 24.2301 365.027 24.1129 364.52 23.8786C364.013 23.6399 363.611 23.2969 363.312 22.8494C363.014 22.3977 362.865 21.8523 362.865 21.2131C362.865 20.6506 362.976 20.1946 363.197 19.8452C363.419 19.4915 363.715 19.2145 364.086 19.0142C364.456 18.8139 364.866 18.6648 365.313 18.5668C365.765 18.4645 366.218 18.3835 366.674 18.3239C367.271 18.2472 367.755 18.1896 368.125 18.1513C368.5 18.1087 368.773 18.0384 368.944 17.9403C369.118 17.8423 369.206 17.6719 369.206 17.429V17.3778C369.206 16.7472 369.033 16.2571 368.688 15.9077C368.347 15.5582 367.829 15.3835 367.135 15.3835C366.415 15.3835 365.85 15.5412 365.441 15.8565C365.032 16.1719 364.744 16.5085 364.578 16.8665L363.146 16.3551C363.402 15.7585 363.743 15.294 364.169 14.9616C364.599 14.625 365.068 14.3906 365.575 14.2585C366.086 14.1222 366.589 14.054 367.084 14.054C367.399 14.054 367.761 14.0923 368.17 14.169C368.584 14.2415 368.982 14.3928 369.366 14.6229C369.753 14.853 370.075 15.2003 370.331 15.6648C370.586 16.1293 370.714 16.7514 370.714 17.5312V24H369.206V22.6705H369.129C369.027 22.8835 368.856 23.1115 368.618 23.3544C368.379 23.5973 368.062 23.804 367.665 23.9744C367.269 24.1449 366.785 24.2301 366.214 24.2301ZM366.444 22.875C367.041 22.875 367.544 22.7578 367.953 22.5234C368.366 22.2891 368.677 21.9865 368.886 21.6158C369.099 21.245 369.206 20.8551 369.206 20.446V19.0653C369.142 19.142 369.001 19.2124 368.784 19.2763C368.571 19.3359 368.324 19.3892 368.042 19.4361C367.765 19.4787 367.495 19.517 367.231 19.5511C366.971 19.581 366.76 19.6065 366.598 19.6278C366.206 19.679 365.839 19.7621 365.498 19.8771C365.162 19.9879 364.889 20.1562 364.68 20.3821C364.476 20.6037 364.373 20.9062 364.373 21.2898C364.373 21.8139 364.567 22.2102 364.955 22.4787C365.347 22.7429 365.843 22.875 366.444 22.875ZM380.422 16.3807L379.067 16.7642C378.982 16.5384 378.856 16.3189 378.69 16.1058C378.528 15.8885 378.306 15.7095 378.025 15.5689C377.744 15.4283 377.384 15.358 376.945 15.358C376.344 15.358 375.843 15.4964 375.443 15.7734C375.046 16.0462 374.848 16.3935 374.848 16.8153C374.848 17.1903 374.985 17.4865 375.257 17.7038C375.53 17.9212 375.956 18.1023 376.536 18.2472L377.993 18.6051C378.871 18.8182 379.525 19.1442 379.956 19.5831C380.386 20.0178 380.601 20.5781 380.601 21.2642C380.601 21.8267 380.439 22.3295 380.115 22.7727C379.796 23.2159 379.348 23.5653 378.773 23.821C378.198 24.0767 377.529 24.2045 376.766 24.2045C375.764 24.2045 374.936 23.9872 374.279 23.5526C373.623 23.1179 373.208 22.483 373.033 21.6477L374.465 21.2898C374.601 21.8182 374.859 22.2145 375.238 22.4787C375.622 22.7429 376.122 22.875 376.74 22.875C377.443 22.875 378.002 22.7259 378.415 22.4276C378.833 22.125 379.041 21.7628 379.041 21.3409C379.041 21 378.922 20.7145 378.684 20.4844C378.445 20.25 378.078 20.0753 377.584 19.9602L375.948 19.5767C375.049 19.3636 374.388 19.0334 373.966 18.5859C373.549 18.1342 373.34 17.5696 373.34 16.892C373.34 16.3381 373.495 15.848 373.806 15.4219C374.122 14.9957 374.55 14.6612 375.091 14.4183C375.637 14.1754 376.255 14.054 376.945 14.054C377.916 14.054 378.679 14.267 379.233 14.6932C379.791 15.1193 380.188 15.6818 380.422 16.3807Z" fill="#333333"/>
<path d="M455.818 121.469C450.818 121.469 433.368 125.888 427.552 127.361L421.736 128.834" stroke="#94D13D"/>
<path d="M295.501 238.465C300.501 238.465 309.069 222.635 311.924 217.358L314.78 212.081" stroke="#6F58E9"/>
<path d="M249.76 105.224C254.76 105.224 271.243 112.454 276.738 114.864L282.233 117.274" stroke="#2D99FE"/>
<path d="M311.231 48.635C316.231 48.635 322.076 65.6597 324.024 71.3346L325.972 77.0095" stroke="#2DDAC1"/>
<path d="M469.898 119H471.57V124.578C471.57 125.094 471.454 125.542 471.223 125.922C470.993 126.302 470.674 126.595 470.266 126.801C469.857 127.007 469.382 127.109 468.84 127.109C468.358 127.109 467.921 127.025 467.527 126.855C467.137 126.684 466.827 126.423 466.598 126.074C466.368 125.723 466.255 125.281 466.258 124.75H467.941C467.947 124.961 467.99 125.142 468.07 125.293C468.154 125.441 468.267 125.556 468.41 125.637C468.556 125.715 468.728 125.754 468.926 125.754C469.134 125.754 469.31 125.71 469.453 125.621C469.599 125.53 469.71 125.397 469.785 125.223C469.861 125.048 469.898 124.833 469.898 124.578V119ZM474.648 127.113C474.266 127.113 473.924 127.047 473.625 126.914C473.326 126.779 473.089 126.579 472.914 126.316C472.742 126.051 472.656 125.72 472.656 125.324C472.656 124.991 472.717 124.711 472.84 124.484C472.962 124.258 473.129 124.076 473.34 123.937C473.551 123.799 473.79 123.695 474.059 123.625C474.329 123.555 474.613 123.505 474.91 123.477C475.259 123.44 475.54 123.406 475.754 123.375C475.967 123.341 476.122 123.292 476.219 123.227C476.315 123.161 476.363 123.065 476.363 122.937V122.914C476.363 122.667 476.285 122.475 476.129 122.34C475.975 122.204 475.757 122.137 475.473 122.137C475.173 122.137 474.935 122.203 474.758 122.336C474.581 122.466 474.464 122.63 474.406 122.828L472.867 122.703C472.945 122.339 473.099 122.023 473.328 121.758C473.557 121.49 473.853 121.284 474.215 121.141C474.579 120.995 475.001 120.922 475.48 120.922C475.814 120.922 476.133 120.961 476.438 121.039C476.745 121.117 477.017 121.238 477.254 121.402C477.493 121.566 477.682 121.777 477.82 122.035C477.958 122.29 478.027 122.596 478.027 122.953V127H476.449V126.168H476.402C476.306 126.355 476.177 126.521 476.016 126.664C475.854 126.805 475.66 126.915 475.434 126.996C475.207 127.074 474.945 127.113 474.648 127.113ZM475.125 125.965C475.37 125.965 475.586 125.917 475.773 125.82C475.961 125.721 476.108 125.589 476.215 125.422C476.322 125.255 476.375 125.066 476.375 124.855V124.219C476.323 124.253 476.251 124.284 476.16 124.312C476.072 124.339 475.971 124.363 475.859 124.387C475.747 124.408 475.635 124.427 475.523 124.445C475.411 124.461 475.31 124.475 475.219 124.488C475.023 124.517 474.853 124.562 474.707 124.625C474.561 124.687 474.448 124.772 474.367 124.879C474.286 124.983 474.246 125.113 474.246 125.27C474.246 125.496 474.328 125.669 474.492 125.789C474.659 125.906 474.87 125.965 475.125 125.965ZM480.982 123.531V127H479.318V121H480.904V122.059H480.975C481.107 121.71 481.33 121.434 481.643 121.23C481.955 121.025 482.334 120.922 482.779 120.922C483.196 120.922 483.559 121.013 483.869 121.195C484.179 121.378 484.42 121.638 484.592 121.977C484.764 122.312 484.85 122.714 484.85 123.18V127H483.186V123.477C483.188 123.109 483.094 122.823 482.904 122.617C482.714 122.409 482.452 122.305 482.119 122.305C481.895 122.305 481.697 122.353 481.525 122.449C481.356 122.546 481.223 122.686 481.127 122.871C481.033 123.053 480.985 123.273 480.982 123.531ZM488.896 127.117C488.278 127.117 487.747 126.992 487.302 126.742C486.859 126.49 486.518 126.133 486.278 125.672C486.039 125.208 485.919 124.66 485.919 124.027C485.919 123.41 486.039 122.868 486.278 122.402C486.518 121.936 486.855 121.573 487.29 121.312C487.728 121.052 488.241 120.922 488.829 120.922C489.225 120.922 489.593 120.986 489.935 121.113C490.278 121.238 490.578 121.427 490.833 121.68C491.091 121.932 491.291 122.25 491.435 122.633C491.578 123.013 491.649 123.458 491.649 123.969V124.426H486.583V123.395H490.083C490.083 123.155 490.031 122.943 489.927 122.758C489.823 122.573 489.678 122.428 489.493 122.324C489.311 122.217 489.099 122.164 488.856 122.164C488.604 122.164 488.38 122.223 488.185 122.34C487.992 122.454 487.841 122.609 487.731 122.805C487.622 122.997 487.566 123.212 487.563 123.449V124.43C487.563 124.727 487.618 124.983 487.728 125.199C487.84 125.415 487.997 125.582 488.2 125.699C488.403 125.816 488.644 125.875 488.923 125.875C489.108 125.875 489.277 125.849 489.431 125.797C489.584 125.745 489.716 125.667 489.825 125.562C489.935 125.458 490.018 125.331 490.075 125.18L491.614 125.281C491.536 125.651 491.376 125.974 491.134 126.25C490.894 126.523 490.584 126.737 490.204 126.891C489.826 127.042 489.39 127.117 488.896 127.117ZM492.735 127V121H494.399V127H492.735ZM493.571 120.227C493.324 120.227 493.112 120.145 492.935 119.98C492.76 119.814 492.673 119.615 492.673 119.383C492.673 119.154 492.76 118.957 492.935 118.793C493.112 118.626 493.324 118.543 493.571 118.543C493.819 118.543 494.03 118.626 494.204 118.793C494.381 118.957 494.47 119.154 494.47 119.383C494.47 119.615 494.381 119.814 494.204 119.98C494.03 120.145 493.819 120.227 493.571 120.227ZM495.732 127V121H497.346V122.047H497.408C497.518 121.674 497.701 121.393 497.959 121.203C498.217 121.01 498.514 120.914 498.85 120.914C498.933 120.914 499.023 120.919 499.119 120.93C499.215 120.94 499.3 120.954 499.373 120.973V122.449C499.295 122.426 499.187 122.405 499.049 122.387C498.911 122.368 498.785 122.359 498.67 122.359C498.425 122.359 498.206 122.413 498.014 122.52C497.824 122.624 497.673 122.77 497.561 122.957C497.451 123.145 497.396 123.361 497.396 123.605V127H495.732ZM502.665 127.117C502.058 127.117 501.534 126.988 501.091 126.73C500.651 126.47 500.311 126.108 500.071 125.645C499.832 125.178 499.712 124.638 499.712 124.023C499.712 123.404 499.832 122.862 500.071 122.398C500.311 121.932 500.651 121.57 501.091 121.312C501.534 121.052 502.058 120.922 502.665 120.922C503.272 120.922 503.795 121.052 504.235 121.312C504.678 121.57 505.019 121.932 505.259 122.398C505.498 122.862 505.618 123.404 505.618 124.023C505.618 124.638 505.498 125.178 505.259 125.645C505.019 126.108 504.678 126.47 504.235 126.73C503.795 126.988 503.272 127.117 502.665 127.117ZM502.673 125.828C502.949 125.828 503.179 125.75 503.364 125.594C503.549 125.435 503.688 125.219 503.782 124.945C503.879 124.672 503.927 124.361 503.927 124.012C503.927 123.663 503.879 123.352 503.782 123.078C503.688 122.805 503.549 122.589 503.364 122.43C503.179 122.271 502.949 122.191 502.673 122.191C502.394 122.191 502.16 122.271 501.97 122.43C501.782 122.589 501.64 122.805 501.544 123.078C501.45 123.352 501.403 123.663 501.403 124.012C501.403 124.361 501.45 124.672 501.544 124.945C501.64 125.219 501.782 125.435 501.97 125.594C502.16 125.75 502.394 125.828 502.673 125.828ZM507.673 127.102C507.415 127.102 507.194 127.01 507.009 126.828C506.826 126.643 506.735 126.422 506.735 126.164C506.735 125.909 506.826 125.69 507.009 125.508C507.194 125.326 507.415 125.234 507.673 125.234C507.923 125.234 508.142 125.326 508.329 125.508C508.517 125.69 508.61 125.909 508.61 126.164C508.61 126.336 508.566 126.493 508.478 126.637C508.392 126.777 508.278 126.891 508.138 126.977C507.997 127.06 507.842 127.102 507.673 127.102ZM507.673 122.898C507.415 122.898 507.194 122.807 507.009 122.625C506.826 122.443 506.735 122.221 506.735 121.961C506.735 121.706 506.826 121.488 507.009 121.309C507.194 121.126 507.415 121.035 507.673 121.035C507.923 121.035 508.142 121.126 508.329 121.309C508.517 121.488 508.61 121.706 508.61 121.961C508.61 122.135 508.566 122.294 508.478 122.437C508.392 122.578 508.278 122.69 508.138 122.773C507.997 122.857 507.842 122.898 507.673 122.898ZM512.386 125.594V124.262L515.726 119H516.874V120.844H516.194L514.089 124.176V124.238H518.835V125.594H512.386ZM516.226 127V125.187L516.257 124.598V119H517.843V127H516.226ZM519.962 127V125.781L522.81 123.145C523.052 122.91 523.255 122.699 523.419 122.512C523.586 122.324 523.712 122.141 523.798 121.961C523.884 121.779 523.927 121.582 523.927 121.371C523.927 121.137 523.873 120.935 523.767 120.766C523.66 120.594 523.514 120.462 523.329 120.371C523.144 120.277 522.935 120.23 522.7 120.23C522.455 120.23 522.242 120.28 522.06 120.379C521.877 120.478 521.737 120.62 521.638 120.805C521.539 120.99 521.489 121.21 521.489 121.465H519.884C519.884 120.941 520.002 120.487 520.239 120.102C520.476 119.716 520.808 119.418 521.235 119.207C521.662 118.996 522.155 118.891 522.712 118.891C523.285 118.891 523.784 118.992 524.208 119.195C524.635 119.396 524.967 119.674 525.204 120.031C525.441 120.388 525.56 120.797 525.56 121.258C525.56 121.56 525.5 121.858 525.38 122.152C525.263 122.447 525.053 122.773 524.751 123.133C524.449 123.49 524.023 123.918 523.474 124.418L522.306 125.562V125.617H525.665V127H519.962ZM527.879 127.102C527.621 127.102 527.4 127.01 527.215 126.828C527.033 126.643 526.941 126.422 526.941 126.164C526.941 125.909 527.033 125.69 527.215 125.508C527.4 125.326 527.621 125.234 527.879 125.234C528.129 125.234 528.348 125.326 528.535 125.508C528.723 125.69 528.816 125.909 528.816 126.164C528.816 126.336 528.772 126.493 528.684 126.637C528.598 126.777 528.484 126.891 528.344 126.977C528.203 127.06 528.048 127.102 527.879 127.102ZM532.648 119V127H530.957V120.605H530.91L529.078 121.754V120.254L531.059 119H532.648ZM541.475 125.5V125.078C541.475 124.758 541.542 124.464 541.678 124.195C541.816 123.924 542.015 123.708 542.275 123.547C542.538 123.383 542.859 123.301 543.236 123.301C543.619 123.301 543.941 123.382 544.201 123.543C544.464 123.704 544.662 123.921 544.795 124.191C544.93 124.46 544.998 124.755 544.998 125.078V125.5C544.998 125.82 544.93 126.116 544.795 126.387C544.66 126.655 544.46 126.87 544.197 127.031C543.934 127.195 543.614 127.277 543.236 127.277C542.854 127.277 542.532 127.195 542.271 127.031C542.011 126.87 541.813 126.655 541.678 126.387C541.542 126.116 541.475 125.82 541.475 125.5ZM542.611 125.078V125.5C542.611 125.685 542.656 125.859 542.744 126.023C542.835 126.187 542.999 126.27 543.236 126.27C543.473 126.27 543.635 126.189 543.721 126.027C543.809 125.866 543.854 125.69 543.854 125.5V125.078C543.854 124.888 543.812 124.711 543.729 124.547C543.645 124.383 543.481 124.301 543.236 124.301C543.002 124.301 542.839 124.383 542.748 124.547C542.657 124.711 542.611 124.888 542.611 125.078ZM537.369 120.922V120.5C537.369 120.177 537.438 119.882 537.576 119.613C537.714 119.342 537.913 119.126 538.174 118.965C538.437 118.803 538.755 118.723 539.127 118.723C539.512 118.723 539.835 118.803 540.096 118.965C540.356 119.126 540.554 119.342 540.689 119.613C540.825 119.882 540.893 120.177 540.893 120.5V120.922C540.893 121.245 540.824 121.54 540.686 121.809C540.55 122.077 540.351 122.292 540.088 122.453C539.827 122.612 539.507 122.691 539.127 122.691C538.747 122.691 538.425 122.611 538.162 122.449C537.902 122.285 537.704 122.07 537.568 121.805C537.436 121.536 537.369 121.242 537.369 120.922ZM538.514 120.5V120.922C538.514 121.112 538.558 121.288 538.646 121.449C538.738 121.611 538.898 121.691 539.127 121.691C539.367 121.691 539.529 121.611 539.615 121.449C539.704 121.288 539.748 121.112 539.748 120.922V120.5C539.748 120.31 539.706 120.133 539.623 119.969C539.54 119.805 539.374 119.723 539.127 119.723C538.895 119.723 538.735 119.806 538.646 119.973C538.558 120.139 538.514 120.315 538.514 120.5ZM537.885 127L543.385 119H544.408L538.908 127H537.885Z" fill="black"/>
<path d="M201.695 244V236H206.992V237.395H203.387V239.301H206.641V240.695H203.387V244H201.695ZM210.393 244.117C209.775 244.117 209.244 243.992 208.799 243.742C208.356 243.49 208.015 243.133 207.775 242.672C207.536 242.208 207.416 241.66 207.416 241.027C207.416 240.41 207.536 239.868 207.775 239.402C208.015 238.936 208.352 238.573 208.787 238.312C209.225 238.052 209.738 237.922 210.326 237.922C210.722 237.922 211.09 237.986 211.432 238.113C211.775 238.238 212.075 238.427 212.33 238.68C212.588 238.932 212.788 239.25 212.932 239.633C213.075 240.013 213.146 240.458 213.146 240.969V241.426H208.08V240.395H211.58C211.58 240.155 211.528 239.943 211.424 239.758C211.32 239.573 211.175 239.428 210.99 239.324C210.808 239.217 210.596 239.164 210.354 239.164C210.101 239.164 209.877 239.223 209.682 239.34C209.489 239.454 209.338 239.609 209.229 239.805C209.119 239.997 209.063 240.212 209.061 240.449V241.43C209.061 241.727 209.115 241.983 209.225 242.199C209.337 242.415 209.494 242.582 209.697 242.699C209.9 242.816 210.141 242.875 210.42 242.875C210.605 242.875 210.774 242.849 210.928 242.797C211.081 242.745 211.213 242.667 211.322 242.562C211.432 242.458 211.515 242.331 211.572 242.18L213.111 242.281C213.033 242.651 212.873 242.974 212.631 243.25C212.391 243.523 212.081 243.737 211.701 243.891C211.324 244.042 210.887 244.117 210.393 244.117ZM219.665 238L217.567 244H215.692L213.595 238H215.353L216.599 242.293H216.661L217.903 238H219.665ZM223.058 244.117C222.44 244.117 221.909 243.992 221.464 243.742C221.021 243.49 220.68 243.133 220.44 242.672C220.201 242.208 220.081 241.66 220.081 241.027C220.081 240.41 220.201 239.868 220.44 239.402C220.68 238.936 221.017 238.573 221.452 238.312C221.89 238.052 222.403 237.922 222.991 237.922C223.387 237.922 223.756 237.986 224.097 238.113C224.44 238.238 224.74 238.427 224.995 238.68C225.253 238.932 225.453 239.25 225.597 239.633C225.74 240.013 225.812 240.458 225.812 240.969V241.426H220.745V240.395H224.245C224.245 240.155 224.193 239.943 224.089 239.758C223.985 239.573 223.84 239.428 223.655 239.324C223.473 239.217 223.261 239.164 223.019 239.164C222.766 239.164 222.542 239.223 222.347 239.34C222.154 239.454 222.003 239.609 221.894 239.805C221.784 239.997 221.728 240.212 221.726 240.449V241.43C221.726 241.727 221.78 241.983 221.89 242.199C222.002 242.415 222.159 242.582 222.362 242.699C222.565 242.816 222.806 242.875 223.085 242.875C223.27 242.875 223.439 242.849 223.593 242.797C223.746 242.745 223.878 242.667 223.987 242.562C224.097 242.458 224.18 242.331 224.237 242.18L225.776 242.281C225.698 242.651 225.538 242.974 225.296 243.25C225.056 243.523 224.746 243.737 224.366 243.891C223.989 244.042 223.552 244.117 223.058 244.117ZM226.897 244V238H228.511V239.047H228.573C228.683 238.674 228.866 238.393 229.124 238.203C229.382 238.01 229.679 237.914 230.015 237.914C230.098 237.914 230.188 237.919 230.284 237.93C230.381 237.94 230.465 237.954 230.538 237.973V239.449C230.46 239.426 230.352 239.405 230.214 239.387C230.076 239.368 229.95 239.359 229.835 239.359C229.59 239.359 229.371 239.413 229.179 239.52C228.989 239.624 228.838 239.77 228.726 239.957C228.616 240.145 228.562 240.361 228.562 240.605V244H226.897ZM233.854 244.117C233.236 244.117 232.705 243.992 232.26 243.742C231.817 243.49 231.476 243.133 231.236 242.672C230.997 242.208 230.877 241.66 230.877 241.027C230.877 240.41 230.997 239.868 231.236 239.402C231.476 238.936 231.813 238.573 232.248 238.312C232.686 238.052 233.199 237.922 233.787 237.922C234.183 237.922 234.551 237.986 234.893 238.113C235.236 238.238 235.536 238.427 235.791 238.68C236.049 238.932 236.249 239.25 236.393 239.633C236.536 240.013 236.607 240.458 236.607 240.969V241.426H231.541V240.395H235.041C235.041 240.155 234.989 239.943 234.885 239.758C234.781 239.573 234.636 239.428 234.451 239.324C234.269 239.217 234.057 239.164 233.814 239.164C233.562 239.164 233.338 239.223 233.143 239.34C232.95 239.454 232.799 239.609 232.689 239.805C232.58 239.997 232.524 240.212 232.521 240.449V241.43C232.521 241.727 232.576 241.983 232.686 242.199C232.798 242.415 232.955 242.582 233.158 242.699C233.361 242.816 233.602 242.875 233.881 242.875C234.066 242.875 234.235 242.849 234.389 242.797C234.542 242.745 234.674 242.667 234.783 242.562C234.893 242.458 234.976 242.331 235.033 242.18L236.572 242.281C236.494 242.651 236.334 242.974 236.092 243.25C235.852 243.523 235.542 243.737 235.162 243.891C234.785 244.042 234.348 244.117 233.854 244.117ZM237.693 244V238H239.357V244H237.693ZM238.529 237.227C238.282 237.227 238.07 237.145 237.893 236.98C237.718 236.814 237.631 236.615 237.631 236.383C237.631 236.154 237.718 235.957 237.893 235.793C238.07 235.626 238.282 235.543 238.529 235.543C238.777 235.543 238.988 235.626 239.162 235.793C239.339 235.957 239.428 236.154 239.428 236.383C239.428 236.615 239.339 236.814 239.162 236.98C238.988 237.145 238.777 237.227 238.529 237.227ZM240.69 244V238H242.304V239.047H242.366C242.476 238.674 242.659 238.393 242.917 238.203C243.175 238.01 243.472 237.914 243.808 237.914C243.891 237.914 243.981 237.919 244.077 237.93C244.174 237.94 244.258 237.954 244.331 237.973V239.449C244.253 239.426 244.145 239.405 244.007 239.387C243.869 239.368 243.743 239.359 243.628 239.359C243.383 239.359 243.164 239.413 242.972 239.52C242.782 239.624 242.631 239.77 242.519 239.957C242.409 240.145 242.354 240.361 242.354 240.605V244H240.69ZM247.623 244.117C247.016 244.117 246.492 243.988 246.049 243.73C245.609 243.47 245.269 243.108 245.029 242.645C244.79 242.178 244.67 241.638 244.67 241.023C244.67 240.404 244.79 239.862 245.029 239.398C245.269 238.932 245.609 238.57 246.049 238.312C246.492 238.052 247.016 237.922 247.623 237.922C248.23 237.922 248.753 238.052 249.193 238.312C249.636 238.57 249.977 238.932 250.217 239.398C250.456 239.862 250.576 240.404 250.576 241.023C250.576 241.638 250.456 242.178 250.217 242.645C249.977 243.108 249.636 243.47 249.193 243.73C248.753 243.988 248.23 244.117 247.623 244.117ZM247.631 242.828C247.907 242.828 248.137 242.75 248.322 242.594C248.507 242.435 248.646 242.219 248.74 241.945C248.837 241.672 248.885 241.361 248.885 241.012C248.885 240.663 248.837 240.352 248.74 240.078C248.646 239.805 248.507 239.589 248.322 239.43C248.137 239.271 247.907 239.191 247.631 239.191C247.352 239.191 247.118 239.271 246.928 239.43C246.74 239.589 246.598 239.805 246.502 240.078C246.408 240.352 246.361 240.663 246.361 241.012C246.361 241.361 246.408 241.672 246.502 241.945C246.598 242.219 246.74 242.435 246.928 242.594C247.118 242.75 247.352 242.828 247.631 242.828ZM252.631 244.102C252.373 244.102 252.152 244.01 251.967 243.828C251.785 243.643 251.693 243.422 251.693 243.164C251.693 242.909 251.785 242.69 251.967 242.508C252.152 242.326 252.373 242.234 252.631 242.234C252.881 242.234 253.1 242.326 253.287 242.508C253.475 242.69 253.568 242.909 253.568 243.164C253.568 243.336 253.524 243.493 253.436 243.637C253.35 243.777 253.236 243.891 253.096 243.977C252.955 244.06 252.8 244.102 252.631 244.102ZM252.631 239.898C252.373 239.898 252.152 239.807 251.967 239.625C251.785 239.443 251.693 239.221 251.693 238.961C251.693 238.706 251.785 238.488 251.967 238.309C252.152 238.126 252.373 238.035 252.631 238.035C252.881 238.035 253.1 238.126 253.287 238.309C253.475 238.488 253.568 238.706 253.568 238.961C253.568 239.135 253.524 239.294 253.436 239.437C253.35 239.578 253.236 239.69 253.096 239.773C252.955 239.857 252.8 239.898 252.631 239.898ZM260.422 244.109C259.839 244.109 259.319 244.009 258.863 243.809C258.41 243.605 258.052 243.327 257.789 242.973C257.529 242.616 257.395 242.204 257.387 241.738H259.09C259.1 241.934 259.164 242.105 259.281 242.254C259.401 242.4 259.56 242.513 259.758 242.594C259.956 242.674 260.178 242.715 260.426 242.715C260.684 242.715 260.911 242.669 261.109 242.578C261.307 242.487 261.462 242.361 261.574 242.199C261.686 242.038 261.742 241.852 261.742 241.641C261.742 241.427 261.682 241.238 261.563 241.074C261.445 240.908 261.276 240.777 261.055 240.684C260.836 240.59 260.576 240.543 260.273 240.543H259.527V239.301H260.273C260.529 239.301 260.754 239.257 260.949 239.168C261.147 239.079 261.301 238.957 261.41 238.801C261.52 238.642 261.574 238.457 261.574 238.246C261.574 238.046 261.526 237.87 261.43 237.719C261.336 237.565 261.203 237.445 261.031 237.359C260.862 237.273 260.664 237.23 260.438 237.23C260.208 237.23 259.999 237.272 259.809 237.355C259.618 237.436 259.466 237.552 259.352 237.703C259.237 237.854 259.176 238.031 259.168 238.234H257.547C257.555 237.773 257.686 237.367 257.941 237.016C258.197 236.664 258.54 236.389 258.973 236.191C259.408 235.991 259.898 235.891 260.445 235.891C260.997 235.891 261.48 235.991 261.895 236.191C262.309 236.392 262.63 236.663 262.859 237.004C263.091 237.342 263.206 237.723 263.203 238.145C263.206 238.592 263.066 238.966 262.785 239.266C262.507 239.565 262.143 239.755 261.695 239.836V239.898C262.284 239.974 262.732 240.178 263.039 240.512C263.349 240.842 263.503 241.257 263.5 241.754C263.503 242.21 263.371 242.615 263.105 242.969C262.842 243.323 262.479 243.602 262.016 243.805C261.552 244.008 261.021 244.109 260.422 244.109ZM268.196 236V244H266.505V237.605H266.458L264.626 238.754V237.254L266.606 236H268.196ZM270.656 244.102C270.398 244.102 270.177 244.01 269.992 243.828C269.81 243.643 269.719 243.422 269.719 243.164C269.719 242.909 269.81 242.69 269.992 242.508C270.177 242.326 270.398 242.234 270.656 242.234C270.906 242.234 271.125 242.326 271.313 242.508C271.5 242.69 271.594 242.909 271.594 243.164C271.594 243.336 271.549 243.493 271.461 243.637C271.375 243.777 271.262 243.891 271.121 243.977C270.98 244.06 270.826 244.102 270.656 244.102ZM275.692 244.109C275.281 244.107 274.884 244.038 274.501 243.902C274.121 243.767 273.78 243.547 273.478 243.242C273.175 242.937 272.936 242.534 272.759 242.031C272.584 241.529 272.497 240.911 272.497 240.18C272.5 239.508 272.576 238.908 272.728 238.379C272.881 237.848 273.1 237.397 273.384 237.027C273.67 236.658 274.013 236.376 274.411 236.184C274.81 235.988 275.256 235.891 275.751 235.891C276.285 235.891 276.756 235.995 277.165 236.203C277.574 236.409 277.902 236.689 278.149 237.043C278.399 237.397 278.55 237.794 278.603 238.234H276.935C276.869 237.956 276.733 237.737 276.524 237.578C276.316 237.419 276.058 237.34 275.751 237.34C275.23 237.34 274.834 237.566 274.563 238.02C274.295 238.473 274.159 239.089 274.153 239.867H274.208C274.328 239.63 274.489 239.428 274.692 239.262C274.898 239.092 275.131 238.964 275.392 238.875C275.655 238.784 275.932 238.738 276.224 238.738C276.698 238.738 277.119 238.85 277.489 239.074C277.859 239.296 278.151 239.6 278.364 239.988C278.578 240.376 278.685 240.82 278.685 241.32C278.685 241.862 278.558 242.344 278.306 242.766C278.056 243.187 277.705 243.518 277.255 243.758C276.807 243.995 276.286 244.112 275.692 244.109ZM275.685 242.781C275.945 242.781 276.178 242.719 276.384 242.594C276.59 242.469 276.751 242.299 276.868 242.086C276.985 241.872 277.044 241.633 277.044 241.367C277.044 241.102 276.985 240.863 276.868 240.652C276.754 240.441 276.595 240.273 276.392 240.148C276.188 240.023 275.957 239.961 275.696 239.961C275.501 239.961 275.32 239.997 275.153 240.07C274.989 240.143 274.845 240.245 274.72 240.375C274.597 240.505 274.501 240.656 274.431 240.828C274.36 240.997 274.325 241.178 274.325 241.371C274.325 241.629 274.384 241.865 274.501 242.078C274.621 242.292 274.782 242.462 274.985 242.59C275.191 242.717 275.424 242.781 275.685 242.781ZM286.809 242.5V242.078C286.809 241.758 286.876 241.464 287.012 241.195C287.15 240.924 287.349 240.708 287.609 240.547C287.872 240.383 288.193 240.301 288.57 240.301C288.953 240.301 289.275 240.382 289.535 240.543C289.798 240.704 289.996 240.921 290.129 241.191C290.264 241.46 290.332 241.755 290.332 242.078V242.5C290.332 242.82 290.264 243.116 290.129 243.387C289.993 243.655 289.794 243.87 289.531 244.031C289.268 244.195 288.948 244.277 288.57 244.277C288.188 244.277 287.866 244.195 287.605 244.031C287.345 243.87 287.147 243.655 287.012 243.387C286.876 243.116 286.809 242.82 286.809 242.5ZM287.945 242.078V242.5C287.945 242.685 287.99 242.859 288.078 243.023C288.169 243.187 288.333 243.27 288.57 243.27C288.807 243.27 288.969 243.189 289.055 243.027C289.143 242.866 289.188 242.69 289.188 242.5V242.078C289.188 241.888 289.146 241.711 289.062 241.547C288.979 241.383 288.815 241.301 288.57 241.301C288.336 241.301 288.173 241.383 288.082 241.547C287.991 241.711 287.945 241.888 287.945 242.078ZM282.703 237.922V237.5C282.703 237.177 282.772 236.882 282.91 236.613C283.048 236.342 283.247 236.126 283.508 235.965C283.771 235.803 284.089 235.723 284.461 235.723C284.846 235.723 285.169 235.803 285.43 235.965C285.69 236.126 285.888 236.342 286.023 236.613C286.159 236.882 286.227 237.177 286.227 237.5V237.922C286.227 238.245 286.158 238.54 286.02 238.809C285.884 239.077 285.685 239.292 285.422 239.453C285.161 239.612 284.841 239.691 284.461 239.691C284.081 239.691 283.759 239.611 283.496 239.449C283.236 239.285 283.038 239.07 282.902 238.805C282.77 238.536 282.703 238.242 282.703 237.922ZM283.848 237.5V237.922C283.848 238.112 283.892 238.288 283.98 238.449C284.072 238.611 284.232 238.691 284.461 238.691C284.701 238.691 284.863 238.611 284.949 238.449C285.038 238.288 285.082 238.112 285.082 237.922V237.5C285.082 237.31 285.04 237.133 284.957 236.969C284.874 236.805 284.708 236.723 284.461 236.723C284.229 236.723 284.069 236.806 283.98 236.973C283.892 237.139 283.848 237.315 283.848 237.5ZM283.219 244L288.719 236H289.742L284.242 244H283.219Z" fill="black"/>
<path d="M176.695 103H178.781L180.984 108.375H181.078L183.281 103H185.367V111H183.727V105.793H183.66L181.59 110.961H180.473L178.402 105.773H178.336V111H176.695V103ZM188.44 111.113C188.058 111.113 187.716 111.047 187.417 110.914C187.118 110.779 186.881 110.579 186.706 110.316C186.534 110.051 186.448 109.72 186.448 109.324C186.448 108.991 186.509 108.711 186.632 108.484C186.754 108.258 186.921 108.076 187.132 107.937C187.343 107.799 187.582 107.695 187.851 107.625C188.121 107.555 188.405 107.505 188.702 107.477C189.051 107.44 189.332 107.406 189.546 107.375C189.759 107.341 189.914 107.292 190.011 107.227C190.107 107.161 190.155 107.065 190.155 106.937V106.914C190.155 106.667 190.077 106.475 189.921 106.34C189.767 106.204 189.549 106.137 189.265 106.137C188.965 106.137 188.727 106.203 188.55 106.336C188.373 106.466 188.256 106.63 188.198 106.828L186.659 106.703C186.737 106.339 186.891 106.023 187.12 105.758C187.349 105.49 187.645 105.284 188.007 105.141C188.371 104.995 188.793 104.922 189.272 104.922C189.606 104.922 189.925 104.961 190.229 105.039C190.537 105.117 190.809 105.238 191.046 105.402C191.285 105.566 191.474 105.777 191.612 106.035C191.75 106.29 191.819 106.596 191.819 106.953V111H190.241V110.168H190.194C190.098 110.355 189.969 110.521 189.808 110.664C189.646 110.805 189.452 110.915 189.226 110.996C188.999 111.074 188.737 111.113 188.44 111.113ZM188.917 109.965C189.162 109.965 189.378 109.917 189.565 109.82C189.753 109.721 189.9 109.589 190.007 109.422C190.114 109.255 190.167 109.066 190.167 108.855V108.219C190.115 108.253 190.043 108.284 189.952 108.312C189.864 108.339 189.763 108.363 189.651 108.387C189.539 108.408 189.427 108.427 189.315 108.445C189.203 108.461 189.102 108.475 189.011 108.488C188.815 108.517 188.645 108.562 188.499 108.625C188.353 108.687 188.24 108.772 188.159 108.879C188.078 108.983 188.038 109.113 188.038 109.27C188.038 109.496 188.12 109.669 188.284 109.789C188.451 109.906 188.662 109.965 188.917 109.965ZM193.11 111V105H194.774V111H193.11ZM193.946 104.227C193.699 104.227 193.487 104.145 193.31 103.98C193.135 103.814 193.048 103.615 193.048 103.383C193.048 103.154 193.135 102.957 193.31 102.793C193.487 102.626 193.699 102.543 193.946 102.543C194.194 102.543 194.405 102.626 194.579 102.793C194.756 102.957 194.845 103.154 194.845 103.383C194.845 103.615 194.756 103.814 194.579 103.98C194.405 104.145 194.194 104.227 193.946 104.227ZM198.818 111.117C198.212 111.117 197.687 110.988 197.244 110.73C196.804 110.47 196.464 110.108 196.225 109.645C195.985 109.178 195.865 108.638 195.865 108.023C195.865 107.404 195.985 106.862 196.225 106.398C196.464 105.932 196.804 105.57 197.244 105.312C197.687 105.052 198.212 104.922 198.818 104.922C199.425 104.922 199.949 105.052 200.389 105.312C200.831 105.57 201.173 105.932 201.412 106.398C201.652 106.862 201.771 107.404 201.771 108.023C201.771 108.638 201.652 109.178 201.412 109.645C201.173 110.108 200.831 110.47 200.389 110.73C199.949 110.988 199.425 111.117 198.818 111.117ZM198.826 109.828C199.102 109.828 199.333 109.75 199.518 109.594C199.702 109.435 199.842 109.219 199.936 108.945C200.032 108.672 200.08 108.361 200.08 108.012C200.08 107.663 200.032 107.352 199.936 107.078C199.842 106.805 199.702 106.589 199.518 106.43C199.333 106.271 199.102 106.191 198.826 106.191C198.548 106.191 198.313 106.271 198.123 106.43C197.936 106.589 197.794 106.805 197.697 107.078C197.604 107.352 197.557 107.663 197.557 108.012C197.557 108.361 197.604 108.672 197.697 108.945C197.794 109.219 197.936 109.435 198.123 109.594C198.313 109.75 198.548 109.828 198.826 109.828ZM203.826 111.102C203.568 111.102 203.347 111.01 203.162 110.828C202.98 110.643 202.889 110.422 202.889 110.164C202.889 109.909 202.98 109.69 203.162 109.508C203.347 109.326 203.568 109.234 203.826 109.234C204.076 109.234 204.295 109.326 204.482 109.508C204.67 109.69 204.764 109.909 204.764 110.164C204.764 110.336 204.719 110.493 204.631 110.637C204.545 110.777 204.432 110.891 204.291 110.977C204.15 111.06 203.995 111.102 203.826 111.102ZM203.826 106.898C203.568 106.898 203.347 106.807 203.162 106.625C202.98 106.443 202.889 106.221 202.889 105.961C202.889 105.706 202.98 105.488 203.162 105.309C203.347 105.126 203.568 105.035 203.826 105.035C204.076 105.035 204.295 105.126 204.482 105.309C204.67 105.488 204.764 105.706 204.764 105.961C204.764 106.135 204.719 106.294 204.631 106.437C204.545 106.578 204.432 106.69 204.291 106.773C204.15 106.857 203.995 106.898 203.826 106.898ZM212.141 103V111H210.449V104.605H210.402L208.57 105.754V104.254L210.551 103H212.141ZM216.964 111.109C216.412 111.109 215.92 111.008 215.487 110.805C215.058 110.602 214.716 110.322 214.464 109.965C214.211 109.608 214.08 109.199 214.069 108.738H215.71C215.728 109.048 215.858 109.299 216.101 109.492C216.343 109.685 216.631 109.781 216.964 109.781C217.229 109.781 217.464 109.723 217.667 109.605C217.873 109.486 218.033 109.32 218.147 109.109C218.265 108.896 218.323 108.651 218.323 108.375C218.323 108.094 218.263 107.846 218.144 107.633C218.026 107.419 217.864 107.253 217.655 107.133C217.447 107.013 217.209 106.952 216.94 106.949C216.706 106.949 216.478 106.997 216.257 107.094C216.038 107.19 215.868 107.322 215.745 107.488L214.241 107.219L214.62 103H219.511V104.383H216.015L215.808 106.387H215.854C215.995 106.189 216.207 106.025 216.491 105.895C216.775 105.764 217.093 105.699 217.444 105.699C217.926 105.699 218.356 105.812 218.733 106.039C219.111 106.266 219.409 106.577 219.628 106.973C219.847 107.366 219.955 107.819 219.952 108.332C219.955 108.871 219.83 109.35 219.577 109.77C219.327 110.186 218.977 110.514 218.526 110.754C218.078 110.991 217.558 111.109 216.964 111.109ZM221.862 111.102C221.604 111.102 221.383 111.01 221.198 110.828C221.016 110.643 220.925 110.422 220.925 110.164C220.925 109.909 221.016 109.69 221.198 109.508C221.383 109.326 221.604 109.234 221.862 109.234C222.112 109.234 222.331 109.326 222.519 109.508C222.706 109.69 222.8 109.909 222.8 110.164C222.8 110.336 222.756 110.493 222.667 110.637C222.581 110.777 222.468 110.891 222.327 110.977C222.187 111.06 222.032 111.102 221.862 111.102ZM226.813 111.109C226.211 111.109 225.676 111.012 225.207 110.816C224.741 110.618 224.375 110.349 224.109 110.008C223.844 109.667 223.711 109.28 223.711 108.848C223.711 108.514 223.786 108.208 223.938 107.93C224.091 107.648 224.299 107.415 224.563 107.23C224.826 107.043 225.12 106.923 225.445 106.871V106.816C225.018 106.73 224.672 106.523 224.406 106.195C224.141 105.865 224.008 105.48 224.008 105.043C224.008 104.629 224.129 104.26 224.371 103.937C224.613 103.612 224.945 103.357 225.367 103.172C225.792 102.984 226.273 102.891 226.813 102.891C227.352 102.891 227.832 102.984 228.254 103.172C228.678 103.359 229.012 103.616 229.254 103.941C229.496 104.264 229.618 104.632 229.621 105.043C229.618 105.483 229.483 105.867 229.215 106.195C228.947 106.523 228.603 106.73 228.184 106.816V106.871C228.504 106.923 228.794 107.043 229.055 107.23C229.318 107.415 229.526 107.648 229.68 107.93C229.836 108.208 229.915 108.514 229.918 108.848C229.915 109.28 229.781 109.667 229.516 110.008C229.25 110.349 228.883 110.618 228.414 110.816C227.948 111.012 227.414 111.109 226.813 111.109ZM226.813 109.867C227.081 109.867 227.315 109.819 227.516 109.723C227.716 109.624 227.872 109.488 227.984 109.316C228.099 109.142 228.156 108.941 228.156 108.715C228.156 108.483 228.098 108.279 227.98 108.102C227.863 107.922 227.704 107.781 227.504 107.68C227.303 107.576 227.073 107.523 226.813 107.523C226.555 107.523 226.324 107.576 226.121 107.68C225.918 107.781 225.758 107.922 225.641 108.102C225.526 108.279 225.469 108.483 225.469 108.715C225.469 108.941 225.525 109.142 225.637 109.316C225.749 109.488 225.906 109.624 226.109 109.723C226.313 109.819 226.547 109.867 226.813 109.867ZM226.813 106.293C227.036 106.293 227.236 106.247 227.41 106.156C227.585 106.065 227.721 105.939 227.82 105.777C227.919 105.616 227.969 105.43 227.969 105.219C227.969 105.01 227.919 104.828 227.82 104.672C227.721 104.513 227.586 104.389 227.414 104.301C227.242 104.21 227.042 104.164 226.813 104.164C226.586 104.164 226.385 104.21 226.211 104.301C226.036 104.389 225.9 104.513 225.801 104.672C225.704 104.828 225.656 105.01 225.656 105.219C225.656 105.43 225.706 105.616 225.805 105.777C225.904 105.939 226.04 106.065 226.215 106.156C226.389 106.247 226.589 106.293 226.813 106.293ZM238.025 109.5V109.078C238.025 108.758 238.093 108.464 238.229 108.195C238.367 107.924 238.566 107.708 238.826 107.547C239.089 107.383 239.41 107.301 239.787 107.301C240.17 107.301 240.492 107.382 240.752 107.543C241.015 107.704 241.213 107.921 241.346 108.191C241.481 108.46 241.549 108.755 241.549 109.078V109.5C241.549 109.82 241.481 110.116 241.346 110.387C241.21 110.655 241.011 110.87 240.748 111.031C240.485 111.195 240.165 111.277 239.787 111.277C239.404 111.277 239.083 111.195 238.822 111.031C238.562 110.87 238.364 110.655 238.229 110.387C238.093 110.116 238.025 109.82 238.025 109.5ZM239.162 109.078V109.5C239.162 109.685 239.206 109.859 239.295 110.023C239.386 110.187 239.55 110.27 239.787 110.27C240.024 110.27 240.186 110.189 240.271 110.027C240.36 109.866 240.404 109.69 240.404 109.5V109.078C240.404 108.888 240.363 108.711 240.279 108.547C240.196 108.383 240.032 108.301 239.787 108.301C239.553 108.301 239.39 108.383 239.299 108.547C239.208 108.711 239.162 108.888 239.162 109.078ZM233.92 104.922V104.5C233.92 104.177 233.989 103.882 234.127 103.613C234.265 103.342 234.464 103.126 234.725 102.965C234.988 102.803 235.305 102.723 235.678 102.723C236.063 102.723 236.386 102.803 236.646 102.965C236.907 103.126 237.105 103.342 237.24 103.613C237.376 103.882 237.443 104.177 237.443 104.5V104.922C237.443 105.245 237.374 105.54 237.236 105.809C237.101 106.077 236.902 106.292 236.639 106.453C236.378 106.612 236.058 106.691 235.678 106.691C235.298 106.691 234.976 106.611 234.713 106.449C234.452 106.285 234.255 106.07 234.119 105.805C233.986 105.536 233.92 105.242 233.92 104.922ZM235.064 104.5V104.922C235.064 105.112 235.109 105.288 235.197 105.449C235.288 105.611 235.449 105.691 235.678 105.691C235.917 105.691 236.08 105.611 236.166 105.449C236.255 105.288 236.299 105.112 236.299 104.922V104.5C236.299 104.31 236.257 104.133 236.174 103.969C236.09 103.805 235.925 103.723 235.678 103.723C235.446 103.723 235.286 103.806 235.197 103.973C235.109 104.139 235.064 104.315 235.064 104.5ZM234.436 111L239.936 103H240.959L235.459 111H234.436Z" fill="black"/>
<path d="M240.074 55H238.262L241.023 47H243.203L245.961 55H244.148L242.145 48.8281H242.082L240.074 55ZM239.961 51.8555H244.242V53.1758H239.961V51.8555ZM246.924 55V47H248.588V50.0078H248.639C248.712 49.8464 248.817 49.6823 248.955 49.5156C249.096 49.3464 249.278 49.2057 249.502 49.0938C249.729 48.9792 250.01 48.9219 250.346 48.9219C250.783 48.9219 251.187 49.0365 251.557 49.2656C251.926 49.4922 252.222 49.8346 252.443 50.293C252.665 50.7487 252.775 51.3203 252.775 52.0078C252.775 52.6771 252.667 53.2422 252.451 53.7031C252.238 54.1615 251.946 54.5091 251.576 54.7461C251.209 54.9805 250.798 55.0977 250.342 55.0977C250.019 55.0977 249.744 55.0443 249.518 54.9375C249.294 54.8307 249.11 54.6966 248.967 54.5352C248.824 54.3711 248.714 54.2057 248.639 54.0391H248.564V55H246.924ZM248.553 52C248.553 52.3568 248.602 52.668 248.701 52.9336C248.8 53.1992 248.943 53.4062 249.131 53.5547C249.318 53.7005 249.546 53.7734 249.814 53.7734C250.085 53.7734 250.314 53.6992 250.502 53.5508C250.689 53.3997 250.831 53.1914 250.928 52.9258C251.027 52.6576 251.076 52.349 251.076 52C251.076 51.6536 251.028 51.349 250.932 51.0859C250.835 50.8229 250.693 50.6172 250.506 50.4687C250.318 50.3203 250.088 50.2461 249.814 50.2461C249.544 50.2461 249.314 50.3177 249.127 50.4609C248.942 50.6042 248.8 50.8073 248.701 51.0703C248.602 51.3333 248.553 51.6432 248.553 52ZM253.886 55V49H255.499V50.0469H255.562C255.671 49.6745 255.854 49.3932 256.112 49.2031C256.37 49.0104 256.667 48.9141 257.003 48.9141C257.086 48.9141 257.176 48.9193 257.272 48.9297C257.369 48.9401 257.453 48.9544 257.526 48.9727V50.4492C257.448 50.4258 257.34 50.4049 257.202 50.3867C257.064 50.3685 256.938 50.3594 256.823 50.3594C256.578 50.3594 256.36 50.4128 256.167 50.5195C255.977 50.6237 255.826 50.7695 255.714 50.957C255.604 51.1445 255.55 51.3607 255.55 51.6055V55H253.886ZM258.387 55V49H260.051V55H258.387ZM259.223 48.2266C258.975 48.2266 258.763 48.1445 258.586 47.9805C258.411 47.8138 258.324 47.6146 258.324 47.3828C258.324 47.1536 258.411 46.957 258.586 46.793C258.763 46.6263 258.975 46.543 259.223 46.543C259.47 46.543 259.681 46.6263 259.855 46.793C260.033 46.957 260.121 47.1536 260.121 47.3828C260.121 47.6146 260.033 47.8138 259.855 47.9805C259.681 48.1445 259.47 48.2266 259.223 48.2266ZM263.048 47V55H261.384V47H263.048ZM265.354 55.1016C265.096 55.1016 264.874 55.0104 264.689 54.8281C264.507 54.6432 264.416 54.4219 264.416 54.1641C264.416 53.9089 264.507 53.6901 264.689 53.5078C264.874 53.3255 265.096 53.2344 265.354 53.2344C265.604 53.2344 265.822 53.3255 266.01 53.5078C266.197 53.6901 266.291 53.9089 266.291 54.1641C266.291 54.3359 266.247 54.4935 266.158 54.6367C266.072 54.7773 265.959 54.8906 265.818 54.9766C265.678 55.0599 265.523 55.1016 265.354 55.1016ZM265.354 50.8984C265.096 50.8984 264.874 50.8073 264.689 50.625C264.507 50.4427 264.416 50.2214 264.416 49.9609C264.416 49.7057 264.507 49.4883 264.689 49.3086C264.874 49.1263 265.096 49.0352 265.354 49.0352C265.604 49.0352 265.822 49.1263 266.01 49.3086C266.197 49.4883 266.291 49.7057 266.291 49.9609C266.291 50.1354 266.247 50.2943 266.158 50.4375C266.072 50.5781 265.959 50.6901 265.818 50.7734C265.678 50.8568 265.523 50.8984 265.354 50.8984ZM273.668 47V55H271.977V48.6055H271.93L270.098 49.7539V48.2539L272.078 47H273.668ZM278.706 55.1758C278.034 55.1732 277.456 55.0078 276.972 54.6797C276.49 54.3516 276.119 53.8763 275.858 53.2539C275.601 52.6315 275.473 51.8828 275.476 51.0078C275.476 50.1354 275.604 49.3919 275.862 48.7773C276.123 48.1628 276.494 47.6953 276.976 47.375C277.46 47.0521 278.037 46.8906 278.706 46.8906C279.375 46.8906 279.951 47.0521 280.433 47.375C280.917 47.6979 281.289 48.1667 281.55 48.7812C281.81 49.3932 281.939 50.1354 281.937 51.0078C281.937 51.8854 281.806 52.6354 281.546 53.2578C281.288 53.8802 280.918 54.3555 280.437 54.6836C279.955 55.0117 279.378 55.1758 278.706 55.1758ZM278.706 53.7734C279.164 53.7734 279.53 53.543 279.804 53.082C280.077 52.6211 280.213 51.9297 280.21 51.0078C280.21 50.401 280.147 49.8958 280.022 49.4922C279.9 49.0885 279.726 48.7852 279.499 48.582C279.275 48.3789 279.011 48.2773 278.706 48.2773C278.25 48.2773 277.886 48.5052 277.612 48.9609C277.339 49.4167 277.201 50.099 277.198 51.0078C277.198 51.6224 277.259 52.1354 277.382 52.5469C277.507 52.9557 277.683 53.263 277.909 53.4687C278.136 53.6719 278.401 53.7734 278.706 53.7734ZM283.809 55.1016C283.551 55.1016 283.329 55.0104 283.145 54.8281C282.962 54.6432 282.871 54.4219 282.871 54.1641C282.871 53.9089 282.962 53.6901 283.145 53.5078C283.329 53.3255 283.551 53.2344 283.809 53.2344C284.059 53.2344 284.277 53.3255 284.465 53.5078C284.652 53.6901 284.746 53.9089 284.746 54.1641C284.746 54.3359 284.702 54.4935 284.613 54.6367C284.527 54.7773 284.414 54.8906 284.273 54.9766C284.133 55.0599 283.978 55.1016 283.809 55.1016ZM288.954 55.1094C288.402 55.1094 287.91 55.0078 287.478 54.8047C287.048 54.6016 286.707 54.3216 286.454 53.9648C286.201 53.6081 286.07 53.1992 286.06 52.7383H287.7C287.718 53.0482 287.849 53.2995 288.091 53.4922C288.333 53.6849 288.621 53.7812 288.954 53.7812C289.22 53.7812 289.454 53.7227 289.657 53.6055C289.863 53.4857 290.023 53.3203 290.138 53.1094C290.255 52.8958 290.313 52.651 290.313 52.375C290.313 52.0937 290.254 51.8464 290.134 51.6328C290.017 51.4193 289.854 51.2526 289.646 51.1328C289.437 51.013 289.199 50.9518 288.931 50.9492C288.696 50.9492 288.468 50.9974 288.247 51.0937C288.028 51.1901 287.858 51.3216 287.735 51.4883L286.231 51.2188L286.61 47H291.501V48.3828H288.005L287.798 50.3867H287.845C287.985 50.1888 288.198 50.0247 288.481 49.8945C288.765 49.7643 289.083 49.6992 289.435 49.6992C289.916 49.6992 290.346 49.8125 290.724 50.0391C291.101 50.2656 291.399 50.5768 291.618 50.9727C291.837 51.3659 291.945 51.819 291.942 52.332C291.945 52.8711 291.82 53.3503 291.567 53.7695C291.317 54.1862 290.967 54.5143 290.517 54.7539C290.069 54.9909 289.548 55.1094 288.954 55.1094ZM300.047 53.5V53.0781C300.047 52.7578 300.115 52.4635 300.25 52.1953C300.388 51.9245 300.587 51.7083 300.848 51.5469C301.111 51.3828 301.431 51.3008 301.809 51.3008C302.191 51.3008 302.513 51.3815 302.773 51.543C303.036 51.7044 303.234 51.9206 303.367 52.1914C303.503 52.4596 303.57 52.7552 303.57 53.0781V53.5C303.57 53.8203 303.503 54.1159 303.367 54.3867C303.232 54.6549 303.033 54.8698 302.77 55.0313C302.507 55.1953 302.186 55.2773 301.809 55.2773C301.426 55.2773 301.104 55.1953 300.844 55.0313C300.583 54.8698 300.385 54.6549 300.25 54.3867C300.115 54.1159 300.047 53.8203 300.047 53.5ZM301.184 53.0781V53.5C301.184 53.6849 301.228 53.8594 301.316 54.0234C301.408 54.1875 301.572 54.2695 301.809 54.2695C302.046 54.2695 302.207 54.1888 302.293 54.0273C302.382 53.8659 302.426 53.6901 302.426 53.5V53.0781C302.426 52.888 302.384 52.7109 302.301 52.5469C302.217 52.3828 302.053 52.3008 301.809 52.3008C301.574 52.3008 301.411 52.3828 301.32 52.5469C301.229 52.7109 301.184 52.888 301.184 53.0781ZM295.941 48.9219V48.5C295.941 48.1771 296.01 47.8815 296.148 47.6133C296.286 47.3424 296.486 47.1263 296.746 46.9648C297.009 46.8034 297.327 46.7227 297.699 46.7227C298.085 46.7227 298.408 46.8034 298.668 46.9648C298.928 47.1263 299.126 47.3424 299.262 47.6133C299.397 47.8815 299.465 48.1771 299.465 48.5V48.9219C299.465 49.2448 299.396 49.5404 299.258 49.8086C299.122 50.0768 298.923 50.2917 298.66 50.4531C298.4 50.612 298.079 50.6914 297.699 50.6914C297.319 50.6914 296.997 50.6107 296.734 50.4492C296.474 50.2852 296.276 50.0703 296.141 49.8047C296.008 49.5365 295.941 49.2422 295.941 48.9219ZM297.086 48.5V48.9219C297.086 49.112 297.13 49.2878 297.219 49.4492C297.31 49.6107 297.47 49.6914 297.699 49.6914C297.939 49.6914 298.102 49.6107 298.187 49.4492C298.276 49.2878 298.32 49.112 298.32 48.9219V48.5C298.32 48.3099 298.279 48.1328 298.195 47.9687C298.112 47.8047 297.947 47.7227 297.699 47.7227C297.467 47.7227 297.307 47.806 297.219 47.9727C297.13 48.1393 297.086 48.3151 297.086 48.5ZM296.457 55L301.957 47H302.98L297.48 55H296.457Z" fill="black"/>
<path d="M228.253 268.273H230.077V274.358C230.077 274.92 229.95 275.409 229.697 275.824C229.447 276.239 229.099 276.558 228.653 276.783C228.207 277.007 227.689 277.119 227.098 277.119C226.572 277.119 226.095 277.027 225.666 276.842C225.24 276.655 224.902 276.371 224.652 275.99C224.402 275.607 224.278 275.125 224.281 274.545H226.118C226.124 274.776 226.17 274.973 226.259 275.138C226.349 275.3 226.473 275.425 226.629 275.513C226.788 275.598 226.976 275.641 227.192 275.641C227.419 275.641 227.611 275.592 227.767 275.496C227.926 275.396 228.047 275.251 228.129 275.061C228.212 274.871 228.253 274.636 228.253 274.358V268.273ZM233.435 277.124C233.017 277.124 232.645 277.051 232.318 276.906C231.991 276.759 231.733 276.541 231.543 276.254C231.355 275.964 231.261 275.604 231.261 275.172C231.261 274.808 231.328 274.503 231.462 274.256C231.595 274.009 231.777 273.81 232.007 273.659C232.237 273.509 232.499 273.395 232.791 273.318C233.087 273.241 233.396 273.188 233.72 273.156C234.101 273.116 234.408 273.08 234.641 273.045C234.874 273.009 235.043 272.955 235.148 272.884C235.253 272.812 235.305 272.707 235.305 272.568V272.543C235.305 272.273 235.22 272.064 235.05 271.916C234.882 271.768 234.643 271.695 234.334 271.695C234.007 271.695 233.747 271.767 233.554 271.912C233.361 272.054 233.233 272.233 233.17 272.449L231.491 272.312C231.577 271.915 231.744 271.571 231.994 271.281C232.244 270.989 232.567 270.764 232.962 270.608C233.359 270.449 233.82 270.369 234.342 270.369C234.706 270.369 235.054 270.412 235.386 270.497C235.722 270.582 236.018 270.714 236.277 270.893C236.538 271.072 236.744 271.303 236.895 271.584C237.045 271.862 237.121 272.196 237.121 272.585V277H235.399V276.092H235.348C235.243 276.297 235.102 276.477 234.926 276.634C234.75 276.787 234.538 276.908 234.291 276.996C234.044 277.081 233.759 277.124 233.435 277.124ZM233.955 275.871C234.222 275.871 234.457 275.818 234.662 275.713C234.866 275.605 235.027 275.46 235.143 275.278C235.26 275.097 235.318 274.891 235.318 274.661V273.966C235.261 274.003 235.183 274.037 235.084 274.068C234.987 274.097 234.878 274.124 234.756 274.149C234.634 274.172 234.511 274.193 234.389 274.213C234.267 274.23 234.156 274.246 234.057 274.26C233.844 274.291 233.658 274.341 233.499 274.409C233.339 274.477 233.216 274.57 233.128 274.686C233.04 274.8 232.996 274.942 232.996 275.112C232.996 275.359 233.085 275.548 233.264 275.679C233.446 275.807 233.676 275.871 233.955 275.871ZM240.344 273.216V277H238.529V270.455H240.259V271.609H240.336C240.481 271.229 240.724 270.928 241.065 270.706C241.406 270.482 241.819 270.369 242.305 270.369C242.759 270.369 243.156 270.469 243.494 270.668C243.832 270.866 244.094 271.151 244.282 271.52C244.469 271.886 244.563 272.324 244.563 272.832V277H242.748V273.156C242.751 272.756 242.648 272.443 242.441 272.219C242.234 271.991 241.948 271.878 241.585 271.878C241.34 271.878 241.124 271.93 240.937 272.036C240.752 272.141 240.607 272.294 240.502 272.496C240.4 272.695 240.347 272.935 240.344 273.216ZM248.977 277.128C248.304 277.128 247.724 276.991 247.238 276.719C246.755 276.443 246.383 276.054 246.122 275.551C245.86 275.045 245.73 274.447 245.73 273.757C245.73 273.084 245.86 272.493 246.122 271.984C246.383 271.476 246.751 271.08 247.225 270.795C247.703 270.511 248.262 270.369 248.904 270.369C249.336 270.369 249.738 270.439 250.11 270.578C250.485 270.714 250.812 270.92 251.091 271.196C251.372 271.472 251.591 271.818 251.747 272.236C251.903 272.651 251.981 273.136 251.981 273.693V274.192H246.454V273.067H250.272C250.272 272.805 250.216 272.574 250.102 272.372C249.988 272.17 249.831 272.013 249.629 271.899C249.43 271.783 249.199 271.724 248.934 271.724C248.659 271.724 248.414 271.788 248.201 271.916C247.991 272.041 247.826 272.21 247.707 272.423C247.588 272.634 247.527 272.868 247.524 273.126V274.196C247.524 274.52 247.583 274.8 247.703 275.036C247.825 275.271 247.997 275.453 248.218 275.581C248.44 275.709 248.703 275.773 249.007 275.773C249.208 275.773 249.393 275.744 249.561 275.688C249.728 275.631 249.872 275.545 249.991 275.432C250.11 275.318 250.201 275.179 250.264 275.014L251.943 275.125C251.858 275.528 251.683 275.881 251.419 276.182C251.157 276.48 250.819 276.713 250.404 276.881C249.993 277.045 249.517 277.128 248.977 277.128ZM253.166 277V270.455H254.981V277H253.166ZM254.078 269.611C253.808 269.611 253.576 269.521 253.383 269.342C253.193 269.161 253.098 268.943 253.098 268.69C253.098 268.44 253.193 268.226 253.383 268.047C253.576 267.865 253.808 267.774 254.078 267.774C254.348 267.774 254.578 267.865 254.768 268.047C254.961 268.226 255.058 268.44 255.058 268.69C255.058 268.943 254.961 269.161 254.768 269.342C254.578 269.521 254.348 269.611 254.078 269.611ZM256.435 277V270.455H258.195V271.597H258.263C258.383 271.19 258.583 270.884 258.864 270.676C259.146 270.466 259.469 270.361 259.836 270.361C259.927 270.361 260.025 270.366 260.13 270.378C260.235 270.389 260.327 270.405 260.407 270.425V272.036C260.322 272.01 260.204 271.987 260.053 271.967C259.903 271.947 259.765 271.938 259.64 271.938C259.373 271.938 259.134 271.996 258.924 272.112C258.717 272.226 258.552 272.385 258.43 272.589C258.31 272.794 258.251 273.03 258.251 273.297V277H256.435ZM263.998 277.128C263.336 277.128 262.764 276.987 262.281 276.706C261.801 276.422 261.43 276.027 261.169 275.521C260.907 275.013 260.777 274.423 260.777 273.753C260.777 273.077 260.907 272.486 261.169 271.98C261.43 271.472 261.801 271.077 262.281 270.795C262.764 270.511 263.336 270.369 263.998 270.369C264.66 270.369 265.231 270.511 265.711 270.795C266.194 271.077 266.566 271.472 266.828 271.98C267.089 272.486 267.22 273.077 267.22 273.753C267.22 274.423 267.089 275.013 266.828 275.521C266.566 276.027 266.194 276.422 265.711 276.706C265.231 276.987 264.66 277.128 263.998 277.128ZM264.007 275.722C264.308 275.722 264.559 275.636 264.761 275.466C264.963 275.293 265.115 275.057 265.217 274.759C265.322 274.46 265.375 274.121 265.375 273.74C265.375 273.359 265.322 273.02 265.217 272.722C265.115 272.423 264.963 272.187 264.761 272.014C264.559 271.841 264.308 271.754 264.007 271.754C263.703 271.754 263.447 271.841 263.24 272.014C263.035 272.187 262.88 272.423 262.775 272.722C262.673 273.02 262.622 273.359 262.622 273.74C262.622 274.121 262.673 274.46 262.775 274.759C262.88 275.057 263.035 275.293 263.24 275.466C263.447 275.636 263.703 275.722 264.007 275.722Z" fill="#333333"/>
<path d="M217 272C217 268.686 214.314 266 211 266C207.686 266 205 268.686 205 272C205 275.314 207.686 278 211 278C214.314 278 217 275.314 217 272Z" fill="#94D13D"/>
<path d="M307.741 277V268.273H313.519V269.794H309.586V271.874H313.136V273.395H309.586V277H307.741ZM317.229 277.128C316.556 277.128 315.976 276.991 315.49 276.719C315.007 276.443 314.635 276.054 314.374 275.551C314.112 275.045 313.982 274.447 313.982 273.757C313.982 273.084 314.112 272.493 314.374 271.984C314.635 271.476 315.003 271.08 315.477 270.795C315.955 270.511 316.514 270.369 317.156 270.369C317.588 270.369 317.99 270.439 318.362 270.578C318.737 270.714 319.064 270.92 319.343 271.196C319.624 271.472 319.843 271.818 319.999 272.236C320.155 272.651 320.233 273.136 320.233 273.693V274.192H314.706V273.067H318.524C318.524 272.805 318.468 272.574 318.354 272.372C318.24 272.17 318.083 272.013 317.881 271.899C317.682 271.783 317.45 271.724 317.186 271.724C316.911 271.724 316.666 271.788 316.453 271.916C316.243 272.041 316.078 272.21 315.959 272.423C315.84 272.634 315.779 272.868 315.776 273.126V274.196C315.776 274.52 315.835 274.8 315.955 275.036C316.077 275.271 316.249 275.453 316.47 275.581C316.692 275.709 316.955 275.773 317.259 275.773C317.46 275.773 317.645 275.744 317.813 275.688C317.98 275.631 318.124 275.545 318.243 275.432C318.362 275.318 318.453 275.179 318.516 275.014L320.195 275.125C320.11 275.528 319.935 275.881 319.671 276.182C319.409 276.48 319.071 276.713 318.656 276.881C318.244 277.045 317.769 277.128 317.229 277.128ZM327.344 270.455L325.056 277H323.01L320.722 270.455H322.64L323.999 275.138H324.067L325.422 270.455H327.344ZM331.045 277.128C330.372 277.128 329.792 276.991 329.307 276.719C328.824 276.443 328.452 276.054 328.19 275.551C327.929 275.045 327.798 274.447 327.798 273.757C327.798 273.084 327.929 272.493 328.19 271.984C328.452 271.476 328.819 271.08 329.294 270.795C329.771 270.511 330.331 270.369 330.973 270.369C331.405 270.369 331.807 270.439 332.179 270.578C332.554 270.714 332.881 270.92 333.159 271.196C333.44 271.472 333.659 271.818 333.815 272.236C333.971 272.651 334.05 273.136 334.05 273.693V274.192H328.523V273.067H332.341C332.341 272.805 332.284 272.574 332.17 272.372C332.057 272.17 331.899 272.013 331.697 271.899C331.498 271.783 331.267 271.724 331.003 271.724C330.727 271.724 330.483 271.788 330.27 271.916C330.059 272.041 329.895 272.21 329.775 272.423C329.656 272.634 329.595 272.868 329.592 273.126V274.196C329.592 274.52 329.652 274.8 329.771 275.036C329.893 275.271 330.065 275.453 330.287 275.581C330.508 275.709 330.771 275.773 331.075 275.773C331.277 275.773 331.461 275.744 331.629 275.688C331.797 275.631 331.94 275.545 332.059 275.432C332.179 275.318 332.27 275.179 332.332 275.014L334.011 275.125C333.926 275.528 333.751 275.881 333.487 276.182C333.226 276.48 332.888 276.713 332.473 276.881C332.061 277.045 331.585 277.128 331.045 277.128ZM335.234 277V270.455H336.994V271.597H337.062C337.182 271.19 337.382 270.884 337.663 270.676C337.944 270.466 338.268 270.361 338.635 270.361C338.726 270.361 338.824 270.366 338.929 270.378C339.034 270.389 339.126 270.405 339.206 270.425V272.036C339.121 272.01 339.003 271.987 338.852 271.967C338.702 271.947 338.564 271.938 338.439 271.938C338.172 271.938 337.933 271.996 337.723 272.112C337.515 272.226 337.351 272.385 337.229 272.589C337.109 272.794 337.05 273.03 337.05 273.297V277H335.234ZM342.823 277.128C342.149 277.128 341.57 276.991 341.084 276.719C340.601 276.443 340.229 276.054 339.968 275.551C339.706 275.045 339.575 274.447 339.575 273.757C339.575 273.084 339.706 272.493 339.968 271.984C340.229 271.476 340.597 271.08 341.071 270.795C341.548 270.511 342.108 270.369 342.75 270.369C343.182 270.369 343.584 270.439 343.956 270.578C344.331 270.714 344.658 270.92 344.936 271.196C345.218 271.472 345.436 271.818 345.593 272.236C345.749 272.651 345.827 273.136 345.827 273.693V274.192H340.3V273.067H344.118C344.118 272.805 344.061 272.574 343.948 272.372C343.834 272.17 343.676 272.013 343.475 271.899C343.276 271.783 343.044 271.724 342.78 271.724C342.504 271.724 342.26 271.788 342.047 271.916C341.837 272.041 341.672 272.21 341.553 272.423C341.433 272.634 341.372 272.868 341.369 273.126V274.196C341.369 274.52 341.429 274.8 341.548 275.036C341.671 275.271 341.843 275.453 342.064 275.581C342.286 275.709 342.548 275.773 342.852 275.773C343.054 275.773 343.239 275.744 343.406 275.688C343.574 275.631 343.718 275.545 343.837 275.432C343.956 275.318 344.047 275.179 344.11 275.014L345.789 275.125C345.703 275.528 345.529 275.881 345.264 276.182C345.003 276.48 344.665 276.713 344.25 276.881C343.838 277.045 343.362 277.128 342.823 277.128ZM347.012 277V270.455H348.827V277H347.012ZM347.923 269.611C347.654 269.611 347.422 269.521 347.229 269.342C347.039 269.161 346.943 268.943 346.943 268.69C346.943 268.44 347.039 268.226 347.229 268.047C347.422 267.865 347.654 267.774 347.923 267.774C348.193 267.774 348.423 267.865 348.614 268.047C348.807 268.226 348.904 268.44 348.904 268.69C348.904 268.943 348.807 269.161 348.614 269.342C348.423 269.521 348.193 269.611 347.923 269.611ZM350.281 277V270.455H352.041V271.597H352.109C352.229 271.19 352.429 270.884 352.71 270.676C352.991 270.466 353.315 270.361 353.682 270.361C353.773 270.361 353.871 270.366 353.976 270.378C354.081 270.389 354.173 270.405 354.253 270.425V272.036C354.167 272.01 354.05 271.987 353.899 271.967C353.748 271.947 353.611 271.938 353.486 271.938C353.219 271.938 352.98 271.996 352.77 272.112C352.562 272.226 352.398 272.385 352.275 272.589C352.156 272.794 352.096 273.03 352.096 273.297V277H350.281ZM357.844 277.128C357.182 277.128 356.61 276.987 356.127 276.706C355.646 276.422 355.276 276.027 355.014 275.521C354.753 275.013 354.622 274.423 354.622 273.753C354.622 273.077 354.753 272.486 355.014 271.98C355.276 271.472 355.646 271.077 356.127 270.795C356.61 270.511 357.182 270.369 357.844 270.369C358.506 270.369 359.077 270.511 359.557 270.795C360.04 271.077 360.412 271.472 360.673 271.98C360.935 272.486 361.066 273.077 361.066 273.753C361.066 274.423 360.935 275.013 360.673 275.521C360.412 276.027 360.04 276.422 359.557 276.706C359.077 276.987 358.506 277.128 357.844 277.128ZM357.852 275.722C358.154 275.722 358.405 275.636 358.607 275.466C358.808 275.293 358.96 275.057 359.063 274.759C359.168 274.46 359.22 274.121 359.22 273.74C359.22 273.359 359.168 273.02 359.063 272.722C358.96 272.423 358.808 272.187 358.607 272.014C358.405 271.841 358.154 271.754 357.852 271.754C357.548 271.754 357.293 271.841 357.085 272.014C356.881 272.187 356.726 272.423 356.621 272.722C356.519 273.02 356.468 273.359 356.468 273.74C356.468 274.121 356.519 274.46 356.621 274.759C356.726 275.057 356.881 275.293 357.085 275.466C357.293 275.636 357.548 275.722 357.852 275.722Z" fill="#333333"/>
<path d="M299.982 272C299.982 268.686 297.296 266 293.982 266C290.669 266 287.982 268.686 287.982 272C287.982 275.314 290.669 278 293.982 278C297.296 278 299.982 275.314 299.982 272Z" fill="#6F58E9"/>
<path d="M399.788 268.273H402.063L404.467 274.136H404.569L406.972 268.273H409.248V277H407.458V271.32H407.386L405.127 276.957H403.909L401.65 271.298H401.578V277H399.788V268.273ZM412.601 277.124C412.183 277.124 411.811 277.051 411.484 276.906C411.157 276.759 410.899 276.541 410.709 276.254C410.521 275.964 410.427 275.604 410.427 275.172C410.427 274.808 410.494 274.503 410.628 274.256C410.761 274.009 410.943 273.81 411.173 273.659C411.403 273.509 411.665 273.395 411.957 273.318C412.253 273.241 412.562 273.188 412.886 273.156C413.267 273.116 413.574 273.08 413.807 273.045C414.04 273.009 414.209 272.955 414.314 272.884C414.419 272.812 414.471 272.707 414.471 272.568V272.543C414.471 272.273 414.386 272.064 414.216 271.916C414.048 271.768 413.809 271.695 413.5 271.695C413.173 271.695 412.913 271.767 412.72 271.912C412.527 272.054 412.399 272.233 412.336 272.449L410.657 272.312C410.743 271.915 410.91 271.571 411.16 271.281C411.41 270.989 411.733 270.764 412.128 270.608C412.525 270.449 412.986 270.369 413.508 270.369C413.872 270.369 414.22 270.412 414.552 270.497C414.888 270.582 415.184 270.714 415.443 270.893C415.704 271.072 415.91 271.303 416.061 271.584C416.211 271.862 416.287 272.196 416.287 272.585V277H414.565V276.092H414.514C414.409 276.297 414.268 276.477 414.092 276.634C413.916 276.787 413.704 276.908 413.457 276.996C413.21 277.081 412.925 277.124 412.601 277.124ZM413.121 275.871C413.388 275.871 413.623 275.818 413.828 275.713C414.032 275.605 414.193 275.46 414.309 275.278C414.426 275.097 414.484 274.891 414.484 274.661V273.966C414.427 274.003 414.349 274.037 414.25 274.068C414.153 274.097 414.044 274.124 413.922 274.149C413.8 274.172 413.677 274.193 413.555 274.213C413.433 274.23 413.322 274.246 413.223 274.26C413.01 274.291 412.824 274.341 412.665 274.409C412.506 274.477 412.382 274.57 412.294 274.686C412.206 274.8 412.162 274.942 412.162 275.112C412.162 275.359 412.251 275.548 412.43 275.679C412.612 275.807 412.842 275.871 413.121 275.871ZM417.695 277V270.455H419.51V277H417.695ZM418.607 269.611C418.337 269.611 418.106 269.521 417.912 269.342C417.722 269.161 417.627 268.943 417.627 268.69C417.627 268.44 417.722 268.226 417.912 268.047C418.106 267.865 418.337 267.774 418.607 267.774C418.877 267.774 419.107 267.865 419.297 268.047C419.491 268.226 419.587 268.44 419.587 268.69C419.587 268.943 419.491 269.161 419.297 269.342C419.107 269.521 418.877 269.611 418.607 269.611ZM423.922 277.128C423.26 277.128 422.688 276.987 422.205 276.706C421.725 276.422 421.354 276.027 421.093 275.521C420.831 275.013 420.7 274.423 420.7 273.753C420.7 273.077 420.831 272.486 421.093 271.98C421.354 271.472 421.725 271.077 422.205 270.795C422.688 270.511 423.26 270.369 423.922 270.369C424.584 270.369 425.155 270.511 425.635 270.795C426.118 271.077 426.49 271.472 426.752 271.98C427.013 272.486 427.144 273.077 427.144 273.753C427.144 274.423 427.013 275.013 426.752 275.521C426.49 276.027 426.118 276.422 425.635 276.706C425.155 276.987 424.584 277.128 423.922 277.128ZM423.931 275.722C424.232 275.722 424.483 275.636 424.685 275.466C424.887 275.293 425.039 275.057 425.141 274.759C425.246 274.46 425.298 274.121 425.298 273.74C425.298 273.359 425.246 273.02 425.141 272.722C425.039 272.423 424.887 272.187 424.685 272.014C424.483 271.841 424.232 271.754 423.931 271.754C423.627 271.754 423.371 271.841 423.164 272.014C422.959 272.187 422.804 272.423 422.699 272.722C422.597 273.02 422.546 273.359 422.546 273.74C422.546 274.121 422.597 274.46 422.699 274.759C422.804 275.057 422.959 275.293 423.164 275.466C423.371 275.636 423.627 275.722 423.931 275.722Z" fill="#333333"/>
<path d="M392.029 272C392.029 268.686 389.343 266 386.029 266C382.716 266 380.029 268.686 380.029 272C380.029 275.314 382.716 278 386.029 278C389.343 278 392.029 275.314 392.029 272Z" fill="#2D99FE"/>
<path d="M471.208 277H469.231L472.244 268.273H474.621L477.63 277H475.653L473.467 270.267H473.398L471.208 277ZM471.085 273.57H475.755V275.01H471.085V273.57ZM478.68 277V268.273H480.496V271.554H480.551C480.631 271.378 480.746 271.199 480.896 271.017C481.05 270.832 481.249 270.679 481.493 270.557C481.74 270.432 482.047 270.369 482.413 270.369C482.891 270.369 483.331 270.494 483.734 270.744C484.138 270.991 484.46 271.365 484.702 271.865C484.943 272.362 485.064 272.986 485.064 273.736C485.064 274.466 484.946 275.082 484.71 275.585C484.477 276.085 484.159 276.464 483.756 276.723C483.355 276.979 482.906 277.107 482.409 277.107C482.057 277.107 481.757 277.048 481.51 276.932C481.266 276.815 481.065 276.669 480.909 276.493C480.753 276.314 480.634 276.134 480.551 275.952H480.47V277H478.68ZM480.457 273.727C480.457 274.116 480.511 274.456 480.619 274.746C480.727 275.036 480.884 275.261 481.088 275.423C481.293 275.582 481.541 275.662 481.834 275.662C482.129 275.662 482.379 275.581 482.584 275.419C482.788 275.254 482.943 275.027 483.048 274.737C483.156 274.445 483.21 274.108 483.21 273.727C483.21 273.349 483.158 273.017 483.053 272.73C482.947 272.443 482.793 272.219 482.588 272.057C482.384 271.895 482.132 271.814 481.834 271.814C481.538 271.814 481.288 271.892 481.084 272.048C480.882 272.205 480.727 272.426 480.619 272.713C480.511 273 480.457 273.338 480.457 273.727ZM486.275 277V270.455H488.035V271.597H488.103C488.223 271.19 488.423 270.884 488.704 270.676C488.985 270.466 489.309 270.361 489.676 270.361C489.767 270.361 489.865 270.366 489.97 270.378C490.075 270.389 490.167 270.405 490.247 270.425V272.036C490.162 272.01 490.044 271.987 489.893 271.967C489.743 271.947 489.605 271.938 489.48 271.938C489.213 271.938 488.974 271.996 488.764 272.112C488.556 272.226 488.392 272.385 488.27 272.589C488.15 272.794 488.091 273.03 488.091 273.297V277H486.275ZM491.185 277V270.455H493.001V277H491.185ZM492.097 269.611C491.827 269.611 491.596 269.521 491.403 269.342C491.212 269.161 491.117 268.943 491.117 268.69C491.117 268.44 491.212 268.226 491.403 268.047C491.596 267.865 491.827 267.774 492.097 267.774C492.367 267.774 492.597 267.865 492.788 268.047C492.981 268.226 493.077 268.44 493.077 268.69C493.077 268.943 492.981 269.161 492.788 269.342C492.597 269.521 492.367 269.611 492.097 269.611ZM496.27 268.273V277H494.455V268.273H496.27Z" fill="#333333"/>
<path d="M461.945 272C461.945 268.686 459.259 266 455.945 266C452.632 266 449.945 268.686 449.945 272C449.945 275.314 452.632 278 455.945 278C459.259 278 461.945 275.314 461.945 272Z" fill="#2DDAC1"/>
</g>
<defs>
<clipPath id="clip0_201_4568">
<rect width="700" height="300" fill="white"/>
</clipPath>
</defs>
</svg>
